<svg width="300" height="200" viewBox="0 0 300 200" fill="none" xmlns="http://www.w3.org/2000/svg">
<path d="M224.993 24.3721H151.572V34.7263H224.993V24.3721Z" fill="#D2D2D2"/>
<path d="M263.905 45.0811H179.809V55.2504H263.905V45.0811Z" fill="#D2D2D2"/>
<path d="M225.43 65.7891H146.865V75.9584H225.43V65.7891Z" fill="#D2D2D2"/>
<path d="M263.286 85.5557H189.223V95.725H263.286V85.5557Z" fill="#D2D2D2"/>
<path d="M224.823 106.265H170.398V116.434H224.823V106.265Z" fill="#D2D2D2"/>
<path d="M263.999 126.973H155.336V137.144H263.999V126.973Z" fill="#D2D2D2"/>
<path d="M263.058 171.214H154.395V181.385H263.058V171.214Z" fill="#D2D2D2"/>
<path d="M224.992 147.681H155.336V158.035H224.992V147.681Z" fill="#D2D2D2"/>
<path d="M156.316 142.324C140.296 144.905 123.899 140.966 110.732 131.376C97.5652 121.785 88.7075 107.328 86.1073 91.1839C83.5071 75.0402 87.3775 58.5325 96.867 45.2924C106.357 32.0523 120.688 23.1644 136.708 20.5839C152.729 18.0032 169.126 21.9412 182.293 31.5317C195.46 41.1222 204.318 55.5795 206.918 71.7233C209.518 87.867 205.648 104.375 196.159 117.615C186.669 130.855 172.338 139.743 156.318 142.324L156.316 142.324ZM139.099 35.4784C129.013 37.1031 119.754 42.0497 112.769 49.5449C105.784 57.04 101.467 66.6614 100.492 76.9047C99.5181 87.148 101.942 97.4359 107.384 106.16C112.826 114.884 120.981 121.553 130.572 125.124C140.164 128.695 150.652 128.966 160.398 125.896C170.143 122.826 178.596 116.587 184.436 108.155C190.275 99.7226 193.171 89.5724 192.672 79.291C192.172 69.0095 188.305 59.1763 181.675 51.3287C176.527 45.2186 169.901 40.5484 162.442 37.7709C154.982 34.9934 146.941 34.2027 139.098 35.4755L139.099 35.4784Z" fill="white"/>
<path d="M155.22 135.826C184.993 131.058 205.229 102.848 200.419 72.8193C195.609 42.7902 167.575 22.3126 137.802 27.0813C108.03 31.85 87.7937 60.0592 92.6035 90.0883C97.4133 120.117 125.448 140.595 155.22 135.826Z" fill="#C5DFF5"/>
<path d="M102.397 113.24L93.0918 121.155L98.7308 127.782L108.036 119.866L102.397 113.24Z" fill="#939393"/>
<path d="M33.5625 183.356L27.804 176.64C27.2675 176.014 27.0042 175.201 27.0719 174.381C27.1397 173.561 27.5329 172.8 28.1653 172.266L89.8147 120.067C90.4473 119.533 91.2671 119.27 92.0939 119.335C92.9206 119.4 93.6866 119.788 94.2234 120.414L99.9819 127.13C100.248 127.44 100.449 127.799 100.575 128.186C100.701 128.574 100.748 128.982 100.714 129.389C100.681 129.795 100.567 130.191 100.379 130.554C100.192 130.916 99.9339 131.239 99.6207 131.504L37.9711 183.701C37.3387 184.235 36.519 184.499 35.6922 184.434C34.8655 184.369 34.0995 183.982 33.5625 183.356Z" fill="#C2C2C2"/>
<path d="M91.3981 115.593L88.5332 118.027L101.162 132.885L104.027 130.451L91.3981 115.593Z" fill="#939393"/>
<path d="M189.6 45.3182C182.361 36.8109 172.762 30.6411 162.017 27.589C151.272 24.537 139.863 24.7398 129.233 28.1717C118.603 31.6037 109.23 38.1107 102.298 46.87C95.3665 55.6292 91.1878 66.2472 90.2906 77.3813C89.3935 88.5154 91.8181 99.6655 97.2579 109.422C102.698 119.178 110.908 127.102 120.852 132.191C130.795 137.281 142.024 139.308 153.119 138.016C164.214 136.724 174.677 132.17 183.185 124.932C188.833 120.125 193.48 114.254 196.86 107.652C200.239 101.049 202.285 93.8463 202.881 86.4536C203.476 79.0608 202.61 71.623 200.331 64.565C198.053 57.507 194.406 50.9669 189.6 45.3182ZM179.735 120.878C172.029 127.435 162.552 131.559 152.502 132.729C142.452 133.899 132.281 132.063 123.275 127.453C114.269 122.842 106.832 115.665 101.905 106.828C96.9778 97.9913 94.7818 87.8918 95.5945 77.8069C96.4073 67.7219 100.192 58.1045 106.471 50.1706C112.75 42.2368 121.24 36.343 130.868 33.2345C140.496 30.1259 150.83 29.9423 160.563 32.7068C170.296 35.4713 178.99 41.0598 185.546 48.7655C189.9 53.882 193.203 59.8059 195.267 66.1989C197.331 72.5919 198.115 79.3289 197.576 86.0251C197.036 92.7213 195.183 99.2456 192.121 105.226C189.06 111.206 184.851 116.524 179.735 120.877L179.735 120.878Z" fill="#939393"/>
<path d="M144.91 71.5176H136.354V78.6458H144.91V71.5176Z" fill="#C2C2C2"/>
<path d="M141.856 50.2286C135.855 54.6647 135.166 61.3277 135.299 64.9439C132.129 63.5184 125.952 61.8002 119.848 66.0794C119.586 66.2631 119.404 66.5483 119.343 66.8725C119.282 67.1966 119.346 67.533 119.521 67.8078C119.696 68.0825 119.968 68.273 120.277 68.3374C120.586 68.4018 120.907 68.3348 121.169 68.1511C127.51 63.7036 134.03 66.9337 135.746 67.9387C135.926 68.2092 136.199 68.3944 136.508 68.4539C136.817 68.5134 137.136 68.4422 137.395 68.256C137.412 68.2437 137.423 68.2261 137.439 68.2128C137.455 68.1996 137.478 68.197 137.494 68.1846C137.753 67.9981 137.931 67.7118 137.989 67.3882C138.047 67.0646 137.981 66.7301 137.804 66.4576C137.527 64.4141 136.994 56.8757 143.23 52.2642C143.357 52.1699 143.466 52.0502 143.549 51.9119C143.632 51.7736 143.689 51.6194 143.716 51.4582C143.742 51.297 143.738 51.1318 143.704 50.9722C143.67 50.8126 143.606 50.6616 143.516 50.5279C143.426 50.3942 143.312 50.2803 143.18 50.1929C143.048 50.1054 142.901 50.0461 142.747 50.0182C142.594 49.9903 142.436 49.9945 142.284 50.0304C142.132 50.0664 141.988 50.1334 141.86 50.2277L141.856 50.2286Z" fill="#939393"/>
<path d="M145.124 113.7C145.064 113.737 145.002 113.771 144.937 113.802C144.506 114.013 144.001 114.058 143.533 113.925C143.066 113.792 142.675 113.493 142.446 113.093C139.79 108.453 139.763 103.128 142.367 97.6935C144.364 93.5807 147.451 90.0015 151.342 87.2881C151.734 87.0171 152.225 86.9011 152.709 86.9657C153.193 87.0303 153.629 87.2701 153.922 87.6323C154.215 87.9946 154.34 88.4497 154.271 88.8975C154.201 89.3453 153.942 89.749 153.55 90.02L153.484 90.0631C148.927 93.0794 140.641 102.654 145.703 111.496C145.915 111.865 145.974 112.294 145.867 112.7C145.76 113.107 145.496 113.462 145.124 113.7Z" fill="#939393"/>
<path d="M135.669 109.743C135.48 109.869 135.268 109.958 135.045 110.004C134.821 110.05 134.591 110.053 134.366 110.012C134.141 109.972 133.927 109.889 133.736 109.768C133.544 109.647 133.379 109.49 133.25 109.307C133.173 109.198 133.109 109.08 133.06 108.957C129.127 99.0015 135.127 86.2603 146.432 80.5582C146.837 80.3425 147.313 80.2917 147.755 80.417C148.198 80.5423 148.572 80.8333 148.794 81.2262C149.016 81.619 149.068 82.0815 148.939 82.5118C148.81 82.9421 148.51 83.305 148.106 83.5206C148.082 83.5334 148.059 83.5454 148.034 83.5565C138.41 88.4109 133.042 99.4873 136.306 107.746C136.446 108.1 136.459 108.49 136.343 108.852C136.228 109.214 135.99 109.528 135.669 109.743Z" fill="#939393"/>
<path d="M138.36 84.3859L138.299 84.4241C130.845 88.8683 123.572 87.3948 118.347 80.3899C118.207 80.2102 118.106 80.0057 118.05 79.7885C117.995 79.5713 117.985 79.3457 118.022 79.1249C118.06 78.9041 118.143 78.6926 118.267 78.5028C118.392 78.313 118.555 78.1487 118.747 78.0196C118.939 77.8904 119.157 77.799 119.387 77.7507C119.616 77.7023 119.854 77.6981 120.086 77.7381C120.317 77.7782 120.538 77.8617 120.736 77.9839C120.933 78.1061 121.102 78.2644 121.234 78.4496C124.103 82.2971 129.066 85.9629 136.418 81.5799C136.81 81.3511 137.28 81.2762 137.729 81.3711C138.178 81.4659 138.57 81.7231 138.823 82.0881C139.075 82.453 139.168 82.8971 139.082 83.326C138.996 83.755 138.737 84.1352 138.36 84.3859Z" fill="#939393"/>
<path d="M179.919 91.2664C179.975 91.2288 180.028 91.1879 180.079 91.144C180.429 90.8426 180.643 90.4163 180.675 89.9587C180.707 89.5011 180.554 89.0496 180.25 88.7036C176.712 84.6814 171.62 82.7202 165.526 83.0201C160.905 83.2709 156.423 84.6719 152.497 87.093C152.099 87.3295 151.812 87.7126 151.7 88.158C151.588 88.6033 151.66 89.0745 151.899 89.4678C152.138 89.8611 152.526 90.1443 152.976 90.2552C153.427 90.366 153.903 90.2954 154.301 90.0589C154.344 90.0335 154.384 90.0073 154.424 89.9784C158.865 87.0825 170.867 83.3122 177.609 90.9708C177.891 91.2915 178.281 91.4988 178.707 91.5533C179.133 91.6078 179.564 91.5057 179.919 91.2664Z" fill="#939393"/>
<path d="M180.545 80.6974C180.743 80.5697 180.913 80.4067 181.043 80.2176C181.174 80.0284 181.264 79.817 181.308 79.5952C181.352 79.3735 181.348 79.1459 181.298 78.9253C181.248 78.7048 181.153 78.4956 181.017 78.3098C180.937 78.1995 180.844 78.0985 180.739 78.0089C172.172 70.7535 157.04 71.6311 147.013 79.9654C146.644 80.2603 146.414 80.6809 146.375 81.1346C146.336 81.5884 146.49 82.0382 146.804 82.385C147.119 82.7319 147.567 82.9474 148.05 82.9842C148.533 83.0209 149.012 82.8759 149.382 82.581L149.436 82.5351C157.972 75.441 171.183 74.5382 178.292 80.5569C178.596 80.8138 178.984 80.9674 179.393 80.9928C179.801 81.0183 180.207 80.9143 180.545 80.6974Z" fill="#939393"/>
<path d="M154.436 73.5046L154.497 73.4672C161.676 68.8788 162.865 62.4884 157.759 55.9394C157.49 55.6085 157.08 55.3809 156.616 55.3055C156.152 55.2301 155.673 55.313 155.28 55.5363C154.887 55.7596 154.612 56.1055 154.515 56.4998C154.418 56.894 154.505 57.3052 154.759 57.6449C157.562 61.2402 159.417 66.4773 152.336 71.0043C151.972 71.2491 151.732 71.6045 151.666 71.9965C151.601 72.3885 151.715 72.7869 151.985 73.1089C152.255 73.431 152.659 73.6519 153.115 73.7257C153.57 73.7995 154.042 73.7206 154.431 73.5053L154.436 73.5046Z" fill="#939393"/>
<path d="M145.197 62.2377C147.639 65.752 146.156 70.9496 141.886 73.8475C137.616 76.7454 132.177 76.2462 129.735 72.7319C127.293 69.2176 128.776 64.02 133.046 61.1221C137.316 58.2242 142.757 58.7234 145.197 62.2377Z" fill="#939393"/>
<path d="M165.659 77.9485C171.358 88.2284 168.95 99.9934 160.279 104.227C151.609 108.46 139.965 103.559 134.264 93.2798C128.564 83.0005 130.974 71.2349 139.644 67.0018C148.315 62.7686 159.96 67.6685 165.659 77.9485Z" fill="#FF9F2B"/>
<line opacity="0.5" x1="138.085" y1="68.3884" x2="164.277" y2="101.735" stroke="white" stroke-width="5"/>
</svg>
