<svg width="300" height="200" viewBox="0 0 300 200" fill="none" xmlns="http://www.w3.org/2000/svg">
<path d="M255 23.8311H55.5V180.462H255V23.8311Z" fill="#E6E6E6"/>
<path d="M255.499 20H56V37.7699H255.499V20Z" fill="#939393"/>
<path d="M242.5 52H172.5V85H242.5V52Z" fill="#C2C2C2"/>
<path d="M242.5 94H172.5V127H242.5V94Z" fill="#459BDC"/>
<path d="M242.5 135H172.5V168H242.5V135Z" fill="#C2C2C2"/>
<path d="M101.755 94H45V132.561H101.755L120.563 113.281L101.755 94ZM110.089 115.914C109.565 115.914 109.052 115.759 108.616 115.467C108.18 115.176 107.84 114.762 107.64 114.278C107.439 113.793 107.386 113.26 107.489 112.746C107.591 112.231 107.844 111.759 108.214 111.388C108.585 111.017 109.058 110.765 109.572 110.663C110.086 110.56 110.619 110.613 111.104 110.813C111.588 111.014 112.002 111.354 112.294 111.79C112.585 112.226 112.74 112.739 112.74 113.263C112.74 113.966 112.461 114.64 111.964 115.138C111.467 115.635 110.792 115.914 110.089 115.914Z" fill="#FF9F2B"/>
<path d="M88.4929 144.692C88.0497 144.691 87.6131 144.585 87.2199 144.38C86.8267 144.176 86.4884 143.88 86.2338 143.517L80.6665 135.615L75.3428 139.342C74.9651 139.607 74.5267 139.773 74.068 139.825C73.6093 139.876 73.145 139.812 72.7178 139.637C72.2906 139.462 71.9142 139.183 71.6233 138.824C71.3323 138.466 71.1362 138.04 71.0529 137.586L66.5476 113.263C66.4728 112.867 66.4863 112.459 66.5872 112.069C66.688 111.679 66.8737 111.316 67.131 111.006C67.5469 110.497 68.1314 110.155 68.7783 110.041C69.4252 109.928 70.0914 110.05 70.6556 110.386L91.9775 122.944C92.3751 123.178 92.7077 123.508 92.9446 123.904C93.1815 124.3 93.3151 124.75 93.3332 125.211C93.3513 125.672 93.2533 126.13 93.0482 126.543C92.8431 126.957 92.5374 127.312 92.1593 127.576L86.8897 131.269L92.4581 139.171C92.8764 139.77 93.04 140.51 92.9129 141.23C92.7859 141.949 92.3786 142.589 91.7804 143.008L90.0734 144.204C89.6092 144.526 89.0573 144.696 88.4929 144.692Z" fill="#939393"/>
<path d="M81.1334 132.965L87.7962 142.428C87.8746 142.54 87.9788 142.631 88.1 142.694C88.2211 142.757 88.3557 142.79 88.4922 142.79C88.6659 142.79 88.8354 142.736 88.9772 142.636L90.6853 141.445C90.7778 141.381 90.8566 141.299 90.9172 141.205C90.9779 141.11 91.0191 141.004 91.0385 140.893C91.0579 140.783 91.0552 140.669 91.0304 140.56C91.0057 140.45 90.9594 140.346 90.8943 140.254L84.2326 130.791L91.061 126.01C91.1772 125.928 91.271 125.819 91.334 125.692C91.397 125.565 91.4271 125.424 91.4215 125.282C91.4159 125.14 91.3748 125.002 91.302 124.88C91.2292 124.758 91.1269 124.656 91.0047 124.584L69.6883 112.027C69.5116 111.926 69.3043 111.89 69.1038 111.928C68.9033 111.965 68.7228 112.073 68.5949 112.232C68.5156 112.326 68.4587 112.437 68.4287 112.557C68.3987 112.676 68.3963 112.801 68.4217 112.922L72.9249 137.245C72.9618 137.441 73.0659 137.618 73.2193 137.745C73.3727 137.872 73.5657 137.941 73.7649 137.941C73.9377 137.941 74.1061 137.887 74.2466 137.786L81.1334 132.965Z" fill="white"/>
<g opacity="0.7">
<path d="M123.518 111.056L123.518 115.056H129.434L129.434 111.056H123.518Z" fill="#939393"/>
<path d="M136.534 111.056L136.534 115.056H142.451L142.451 111.056H136.534Z" fill="#939393"/>
<path d="M149.551 111.056L149.551 115.056H155.468V111.056H149.551Z" fill="#939393"/>
<path d="M162.568 111.056L162.568 115.056H168.484V111.056H162.568Z" fill="#939393"/>
</g>
</svg>
