<svg width="300" height="200" viewBox="0 0 300 200" fill="none" xmlns="http://www.w3.org/2000/svg">
<path d="M217.47 62.5694C217.47 65.5763 218.297 77.9818 218.297 77.9818C221.901 78.944 225.37 80.3544 228.624 82.18C248.454 87.8186 229.865 101.662 204.666 100.912C178.64 100.156 179.466 82.5552 180.705 82.18C179.878 82.18 193.924 77.6041 193.924 77.6041C194.61 72.3666 195.023 67.0969 195.163 61.8164L217.47 62.5694Z" fill="#C2C2C2"/>
<path d="M180.703 50.4666C180.737 51.2091 181.038 51.9141 181.55 52.4516C182.062 52.989 182.751 53.3225 183.49 53.3905H229.157C229.86 53.3087 230.505 52.9599 230.959 52.416C231.413 51.872 231.641 51.1744 231.597 50.4666V44.6114C231.624 43.9644 231.395 43.333 230.959 42.8543C230.524 42.3757 229.918 42.0886 229.273 42.0553H183.492C182.788 42.0407 182.105 42.2988 181.586 42.7758C181.066 43.2527 180.75 43.912 180.703 44.6165V50.4666Z" fill="#C2C2C2"/>
<path d="M207.023 17.1934C202.845 17.291 198.76 18.4461 195.148 20.5513C191.535 22.6564 188.513 25.6432 186.361 29.2337V64.8989C188.452 68.5714 191.479 71.6209 195.132 73.7351C198.786 75.8492 202.934 76.952 207.152 76.9305C211.371 76.909 215.508 75.7639 219.14 73.6126C222.771 71.4612 225.767 68.381 227.82 64.6873V47.0675V29.4478C225.68 25.8011 222.646 22.7619 219.007 20.6176C215.368 18.4733 211.243 17.2947 207.023 17.1934Z" fill="#C2C2C2"/>
<path d="M227.83 44.8332V29.2571C225.778 25.5627 222.782 22.4816 219.151 20.3295C215.519 18.1775 211.382 17.0319 207.163 17.0101C202.944 16.9883 198.795 18.0911 195.142 20.2056C191.488 22.32 188.461 25.37 186.371 29.043V42.4106C189.334 35.9459 194.844 30.6548 200.555 29.5895C210.892 42.4206 219.807 45.2991 227.83 44.8332Z" fill="#737373"/>
<path d="M199.73 63.9854C200.348 65.5011 201.413 66.7912 202.784 67.6822C204.154 68.5731 205.764 69.0222 207.397 68.9692C209.018 68.9706 210.606 68.5005 211.967 67.6159C213.327 66.7313 214.403 65.4702 215.063 63.9854H199.73Z" fill="white"/>
<path d="M252.107 91.8909C249.846 85.1216 247.974 82.8676 241.587 81.7394C235.574 80.6111 220.214 78.1885 220.214 78.1885L220.116 78.2993C219.457 81.5864 217.681 84.5429 215.091 86.6656C212.502 88.7882 209.258 89.9458 205.913 89.9414C202.567 89.9369 199.327 88.7707 196.743 86.6411C194.159 84.5116 192.391 81.5504 191.741 78.2615C189.555 78.6594 178.2 80.722 172.441 81.7394C166.428 82.8676 164.172 85.1216 161.918 91.8909C159.664 98.6603 154.402 126.473 154.402 126.473H259.623C259.623 126.473 254.364 98.6553 252.107 91.8909Z" fill="#C5DFF5"/>
<path d="M101.372 65.3034C101.372 68.1819 102.163 80.056 102.163 80.056C105.613 80.9812 108.933 82.3348 112.048 84.0854C131.029 89.4797 113.234 102.721 89.1122 102.014C64.1992 101.293 64.9907 84.443 66.1766 84.0854C65.3877 84.0854 78.8304 79.7059 78.8304 79.7059C79.4874 74.6932 79.8841 69.6497 80.0189 64.5957L101.372 65.3034Z" fill="#D2D2D2"/>
<path d="M66.1816 53.7178C66.2133 54.4286 66.5008 55.104 66.9909 55.6188C67.481 56.1337 68.1406 56.4531 68.8476 56.5182H112.568C113.241 56.439 113.858 56.1047 114.292 55.5839C114.727 55.0632 114.946 54.3954 114.905 53.7178V48.1119C114.93 47.4929 114.711 46.8889 114.294 46.4311C113.878 45.9732 113.298 45.6985 112.681 45.6665H68.8476C68.1742 45.6534 67.5216 45.9005 67.0252 46.3568C66.5288 46.8131 66.2267 47.4434 66.1816 48.1169V53.7178Z" fill="#D2D2D2"/>
<path d="M91.3709 21.8672C87.3716 21.9616 83.461 23.0684 80.0032 25.0846C76.5453 27.1008 73.6524 29.9609 71.5938 33.3988V67.5328C73.5932 71.0524 76.4909 73.9754 79.9895 76.0021C83.4881 78.0287 87.4617 79.086 91.5026 79.0655C95.5434 79.045 99.5061 77.9474 102.984 75.8854C106.462 73.8233 109.33 70.871 111.294 67.3314V33.5978C109.243 30.1051 106.337 27.1947 102.851 25.1419C99.3645 23.0892 95.4132 21.9621 91.3709 21.8672Z" fill="#D2D2D2"/>
<path d="M84.3887 66.6592C84.9794 68.1099 85.9992 69.3447 87.3108 70.1974C88.6224 71.0501 90.1631 71.4799 91.7257 71.429C93.2778 71.4288 94.7968 70.9783 96.0992 70.1319C97.4015 69.2856 98.4317 68.0794 99.0651 66.6592H84.3887Z" fill="white"/>
<path d="M67.7461 37.7159C68.5451 35.122 68.9145 32.3946 69.314 31.0976C71.6005 19.6038 81.5004 14.5267 89.4153 17.929C90.2769 17.649 91.1579 17.4326 92.0511 17.2818C99.0991 15.5718 110.645 17.6772 113.213 30.6292C113.612 31.9262 113.982 34.6586 114.781 37.2475C113.919 37.4789 113.178 38.0326 112.71 38.7947C112.243 39.5568 112.085 40.4694 112.268 41.3449L113.037 45.3743L109.878 45.8779L108.873 33.4019C108.861 32.6725 108.665 31.958 108.304 31.3245C107.943 30.6911 107.429 30.1592 106.808 29.778L103.966 28.2821C102.533 27.4473 100.888 27.0515 99.2327 27.1437C97.5778 27.2359 95.9861 27.812 94.6542 28.8009L89.9957 32.1402C88.4648 32.9662 86.8478 33.6207 85.1739 34.0919C83.5312 34.3334 81.8555 34.2053 80.2683 33.717C78.6812 33.2287 77.2223 32.3924 75.9977 31.2689L75.4549 30.4579C74.9147 30.8499 74.472 31.3614 74.1613 31.9529C73.8505 32.5443 73.6802 33.1996 73.6634 33.8678L72.6584 46.3463L69.4999 45.8427L70.2688 41.8133C70.4511 40.9365 70.2912 40.023 69.8219 39.2609C69.3526 38.4987 68.6097 37.9458 67.7461 37.7159Z" fill="#A5A5A5"/>
<path d="M134.526 93.369C132.368 86.8918 130.569 84.7335 124.453 83.6532C118.699 82.5728 104.563 80.4422 104.563 80.4422L90.1377 94.5728L76.5969 80.3516C74.1471 80.7973 63.6466 82.7037 58.267 83.6532C52.5105 84.7335 50.3521 86.8918 48.1938 93.369C46.0354 99.8463 41 126.473 41 126.473H141.72C141.72 126.473 136.685 99.8463 134.526 93.369Z" fill="#459BDC"/>
<path d="M189.706 136.646C189.706 136.646 184.402 103.595 179.907 82.3773C175.412 61.16 159.919 59.1201 152.167 59.1201H151.353C144.011 59.1201 128.101 61.16 123.616 82.3773C119.131 103.595 113.816 136.646 113.816 136.646L141.958 137.054V137.87L189.706 136.646Z" fill="#737373"/>
<path d="M162.46 115.227C162.46 118.501 163.277 131.957 163.277 131.957L174.543 133.997C194.122 140.116 174.699 157.669 149.816 156.846C124.117 156.03 124.941 134.405 126.157 133.997C125.341 133.997 139.223 131.549 139.223 131.549C140.04 127.469 140.447 114.424 140.447 114.424L162.46 115.227Z" fill="#C2C2C2"/>
<path fill-rule="evenodd" clip-rule="evenodd" d="M150.146 66.002H153.035C158.825 66.028 164.371 68.2888 168.471 72.2943C172.571 76.2998 174.895 81.7271 174.938 87.3998V90.1978H177.729C178.393 90.2385 179.016 90.5886 179.464 91.1719C179.911 91.7552 180.147 92.5246 180.12 93.3132V100.455C180.164 101.319 179.928 102.169 179.461 102.833C178.994 103.496 178.331 103.922 177.608 104.023H174.713C174.251 107.134 173.087 110.118 171.29 112.751C168.939 116.195 165.61 118.888 161.714 120.498L143.137 121.306C138.818 119.886 135.061 117.175 132.395 113.555C130.311 110.725 128.976 107.45 128.486 104.023H125.958C125.198 103.94 124.489 103.533 123.962 102.877C123.435 102.221 123.126 101.361 123.092 100.455V93.3196C123.14 92.4615 123.465 91.6585 123.999 91.0772C124.532 90.496 125.234 90.181 125.958 90.1978H128.276V87.3998C128.319 81.7327 130.638 76.3102 134.731 72.3056C138.824 68.3011 144.362 66.0365 150.146 66.002Z" fill="#C2C2C2"/>
<path d="M143.207 107.678C143.864 109.291 144.998 110.664 146.457 111.612C147.915 112.56 149.628 113.038 151.366 112.981C153.092 112.982 154.781 112.482 156.229 111.541C157.677 110.599 158.821 109.258 159.524 107.678H143.207Z" fill="white"/>
<path d="M152.995 61.567C149.854 61.3841 146.708 61.8346 143.744 62.8919C140.78 63.9491 138.058 65.5916 135.738 67.7221C133.419 69.8525 131.55 72.4278 130.241 75.2953C128.932 78.1628 128.211 81.2643 128.119 84.4162V86.8666H139.539C141.17 82.7843 147.291 69.3211 147.291 69.3211V86.8666H175.036V85.6402C175.224 82.5956 174.797 79.5442 173.781 76.6688C172.765 73.7933 171.181 71.1528 169.123 68.9053C167.065 66.6578 164.576 64.8495 161.805 63.5886C159.034 62.3277 156.037 61.6401 152.995 61.567Z" fill="#737373"/>
<path d="M198.89 146.461C196.443 139.115 194.403 136.667 187.47 135.443C180.937 134.219 173.6 133.403 173.6 133.403C173.6 133.403 169.522 154.213 151.991 155.845H147.903C130.362 154.213 126.294 133.403 126.294 133.403C126.294 133.403 119.362 134.219 112.427 135.443C105.894 136.667 103.452 139.115 101.004 146.461C98.557 153.807 92.8457 184 92.8457 184H207.049C207.049 184 201.338 153.8 198.89 146.461Z" fill="#FF9F2B"/>
</svg>
