<svg width="300" height="200" viewBox="0 0 300 200" fill="none" xmlns="http://www.w3.org/2000/svg">
<path fill-rule="evenodd" clip-rule="evenodd" d="M4.88702 24H1.10352V22H4.88702V24ZM12.454 24H8.67053V22H12.454V24ZM20.021 24H16.2375V22H20.021V24ZM27.588 24H23.8046V22H27.588V24ZM35.1551 24H31.3716V22H35.1551V24ZM42.7221 24H38.9386V22H42.7221V24ZM50.2891 24H46.5056V22H50.2891V24ZM57.8561 24H54.0726V22H57.8561V24ZM65.4231 24H61.6396V22H65.4231V24ZM72.9901 24H69.2066V22H72.9901V24ZM80.5571 24H76.7736V22H80.5571V24ZM88.1241 24H84.3406V22H88.1241V24ZM95.6911 24H91.9076V22H95.6911V24ZM103.258 24H99.4747V22H103.258V24ZM110.825 24H107.042V22H110.825V24ZM118.392 24H114.609V22H118.392V24ZM125.959 24H122.176V22H125.959V24ZM133.526 24H129.743V22H133.526V24ZM141.093 24H137.31V22H141.093V24ZM148.66 24H144.877V22H148.66V24ZM156.227 24H152.444V22H156.227V24ZM163.794 24H160.011V22H163.794V24ZM171.361 24H167.578V22H171.361V24ZM178.928 24H175.145V22H178.928V24ZM186.495 24H182.712V22H186.495V24ZM194.062 24H190.279V22H194.062V24ZM201.629 24H197.846V22H201.629V24ZM209.196 24H205.413V22H209.196V24ZM216.763 24H212.98V22H216.763V24ZM224.33 24H220.547V22H224.33V24ZM231.897 24H228.114V22H231.897V24ZM239.464 24H235.681V22H239.464V24ZM247.031 24H243.248V22H247.031V24ZM254.598 24H250.815V22H254.598V24ZM262.165 24H258.382V22H262.165V24ZM269.732 24H265.949V22H269.732V24ZM277.299 24H273.516V22H277.299V24ZM284.866 24H281.083V22H284.866V24ZM292.433 24H288.65V22H292.433V24ZM300 24H296.217V22H300V24ZM1.10352 63H4.88702V61H1.10352V63ZM8.67053 63H12.454V61H8.67053V63ZM16.2375 63H20.021V61H16.2375V63ZM23.8046 63H27.588V61H23.8046V63ZM31.3716 63H35.1551V61H31.3716V63ZM38.9386 63H42.7221V61H38.9386V63ZM46.5056 63H50.2891V61H46.5056V63ZM54.0726 63H57.8561V61H54.0726V63ZM61.6396 63H65.4231V61H61.6396V63ZM69.2066 63H72.9901V61H69.2066V63ZM76.7736 63H80.5571V61H76.7736V63ZM84.3406 63H88.1241V61H84.3406V63ZM91.9076 63H95.6911V61H91.9076V63ZM99.4747 63H103.258V61H99.4747V63ZM107.042 63H110.825V61H107.042V63ZM114.609 63H118.392V61H114.609V63ZM122.176 63H125.959V61H122.176V63ZM129.743 63H133.526V61H129.743V63ZM137.31 63H141.093V61H137.31V63ZM144.877 63H148.66V61H144.877V63ZM152.444 63H156.227V61H152.444V63ZM160.011 63H163.794V61H160.011V63ZM167.578 63H171.361V61H167.578V63ZM175.145 63H178.928V61H175.145V63ZM182.712 63H186.495V61H182.712V63ZM190.279 63H194.062V61H190.279V63ZM197.846 63H201.629V61H197.846V63ZM205.413 63H209.196V61H205.413V63ZM212.98 63H216.763V61H212.98V63ZM220.547 63H224.33V61H220.547V63ZM228.114 63H231.897V61H228.114V63ZM235.681 63H239.464V61H235.681V63ZM243.248 63H247.031V61H243.248V63ZM250.815 63H254.598V61H250.815V63ZM258.382 63H262.165V61H258.382V63ZM265.949 63H269.732V61H265.949V63ZM273.516 63H277.299V61H273.516V63ZM281.083 63H284.866V61H281.083V63ZM288.65 63H292.433V61H288.65V63ZM296.217 63H300V61H296.217V63ZM4.88702 102H1.10352V100H4.88702V102ZM12.454 102H8.67053V100H12.454V102ZM20.021 102H16.2375V100H20.021V102ZM27.588 102H23.8046V100H27.588V102ZM35.1551 102H31.3716V100H35.1551V102ZM42.7221 102H38.9386V100H42.7221V102ZM50.2891 102H46.5056V100H50.2891V102ZM57.8561 102H54.0726V100H57.8561V102ZM65.4231 102H61.6396V100H65.4231V102ZM72.9901 102H69.2066V100H72.9901V102ZM80.5571 102H76.7736V100H80.5571V102ZM88.1241 102H84.3406V100H88.1241V102ZM95.6911 102H91.9076V100H95.6911V102ZM103.258 102H99.4747V100H103.258V102ZM110.825 102H107.042V100H110.825V102ZM118.392 102H114.609V100H118.392V102ZM125.959 102H122.176V100H125.959V102ZM133.526 102H129.743V100H133.526V102ZM141.093 102H137.31V100H141.093V102ZM148.66 102H144.877V100H148.66V102ZM156.227 102H152.444V100H156.227V102ZM163.794 102H160.011V100H163.794V102ZM171.361 102H167.578V100H171.361V102ZM178.928 102H175.145V100H178.928V102ZM186.495 102H182.712V100H186.495V102ZM194.062 102H190.279V100H194.062V102ZM201.629 102H197.846V100H201.629V102ZM209.196 102H205.413V100H209.196V102ZM216.763 102H212.98V100H216.763V102ZM224.33 102H220.547V100H224.33V102ZM231.897 102H228.114V100H231.897V102ZM239.464 102H235.681V100H239.464V102ZM247.031 102H243.248V100H247.031V102ZM254.598 102H250.815V100H254.598V102ZM262.165 102H258.382V100H262.165V102ZM269.732 102H265.949V100H269.732V102ZM277.299 102H273.516V100H277.299V102ZM284.866 102H281.083V100H284.866V102ZM292.433 102H288.65V100H292.433V102ZM300 102H296.217V100H300V102ZM4.88702 141H1.10352V139H4.88702V141ZM12.454 141H8.67053V139H12.454V141ZM20.021 141H16.2375V139H20.021V141ZM27.588 141H23.8046V139H27.588V141ZM35.1551 141H31.3716V139H35.1551V141ZM42.7221 141H38.9386V139H42.7221V141ZM50.2891 141H46.5056V139H50.2891V141ZM57.8561 141H54.0726V139H57.8561V141ZM65.4231 141H61.6396V139H65.4231V141ZM72.9901 141H69.2066V139H72.9901V141ZM80.5571 141H76.7736V139H80.5571V141ZM88.1241 141H84.3406V139H88.1241V141ZM95.6911 141H91.9076V139H95.6911V141ZM103.258 141H99.4747V139H103.258V141ZM110.825 141H107.042V139H110.825V141ZM118.392 141H114.609V139H118.392V141ZM125.959 141H122.176V139H125.959V141ZM133.526 141H129.743V139H133.526V141ZM141.093 141H137.31V139H141.093V141ZM148.66 141H144.877V139H148.66V141ZM156.227 141H152.444V139H156.227V141ZM163.794 141H160.011V139H163.794V141ZM171.361 141H167.578V139H171.361V141ZM178.928 141H175.145V139H178.928V141ZM186.495 141H182.712V139H186.495V141ZM194.062 141H190.279V139H194.062V141ZM201.629 141H197.846V139H201.629V141ZM209.196 141H205.413V139H209.196V141ZM216.763 141H212.98V139H216.763V141ZM224.33 141H220.547V139H224.33V141ZM231.897 141H228.114V139H231.897V141ZM239.464 141H235.681V139H239.464V141ZM247.031 141H243.248V139H247.031V141ZM254.598 141H250.815V139H254.598V141ZM262.165 141H258.382V139H262.165V141ZM269.732 141H265.949V139H269.732V141ZM277.299 141H273.516V139H277.299V141ZM284.866 141H281.083V139H284.866V141ZM292.433 141H288.65V139H292.433V141ZM300 141H296.217V139H300V141Z" fill="#C5DFF5"/>
<path d="M53.9996 132H14.3945V175.063H53.9996V132Z" fill="#C2C2C2"/>
<path d="M50.6051 132H11V175.063H50.6051V132Z" fill="#E6E6E6"/>
<path d="M20.4857 137.576H16.8262V170.037H20.4857V137.576Z" fill="#C2C2C2"/>
<path d="M28.64 137.576H24.9805V170.037H28.64V137.576Z" fill="#C2C2C2"/>
<path d="M36.7943 137.576H33.1348V170.037H36.7943V137.576Z" fill="#C2C2C2"/>
<path d="M44.9486 137.576H41.2891V170.037H44.9486V137.576Z" fill="#C2C2C2"/>
<g clip-path="url(#clip0)">
<path d="M154 96H79.3945V177H154V96Z" fill="#9CC8EC"/>
<path d="M147.605 96H73V177H147.605V96Z" fill="#C5DFF5"/>
<path d="M90.8681 106.488H83.9746V167.546H90.8681V106.488Z" fill="#9CC8EC"/>
<path d="M106.229 106.488H99.3359V167.546H106.229V106.488Z" fill="#9CC8EC"/>
<path d="M121.587 106.488H114.693V167.546H121.587V106.488Z" fill="#9CC8EC"/>
<path d="M136.946 106.488H130.053V167.546H136.946V106.488Z" fill="#9CC8EC"/>
</g>
<g clip-path="url(#clip1)">
<path d="M291.001 59H182.316V176H291.001V59Z" fill="#459BDC"/>
<path d="M281.684 59H173V176H281.684V59Z" fill="#9CC8EC"/>
<path d="M199.031 74.1504H188.988V162.345H199.031V74.1504Z" fill="#459BDC" fill-opacity="0.8"/>
<path d="M221.408 74.1504H211.365V162.345H221.408V74.1504Z" fill="#459BDC" fill-opacity="0.8"/>
<path d="M243.781 74.1504H233.738V162.345H243.781V74.1504Z" fill="#459BDC" fill-opacity="0.8"/>
<path d="M266.158 74.1504H256.115V162.345H266.158V74.1504Z" fill="#459BDC" fill-opacity="0.8"/>
</g>
<rect y="174.143" width="300" height="5.4384" fill="#FF8C00"/>
<defs>
<clipPath id="clip0">
<rect width="81" height="81" fill="white" transform="translate(73 96)"/>
</clipPath>
<clipPath id="clip1">
<rect width="118" height="117" fill="white" transform="translate(173 59)"/>
</clipPath>
</defs>
</svg>
