<svg width="58" height="60" viewBox="0 0 58 60" fill="none" xmlns="http://www.w3.org/2000/svg">
<path d="M26 9.15625L51.4062 34.5938L48.5938 37.4062L46 34.8438V60H30V44H22V60H6V34.8438L3.40625 37.4062L0.59375 34.5938L26 9.15625ZM42 30.8438L26 14.8438L10 30.8438V56H18V40H34V56H42V30.8438ZM34 0C36.2083 0 38.3333 0.291667 40.375 0.875C42.4167 1.4375 44.3229 2.23958 46.0938 3.28125C47.8854 4.32292 49.5104 5.57292 50.9688 7.03125C52.4271 8.48958 53.6771 10.1146 54.7188 11.9062C55.7604 13.6771 56.5625 15.5833 57.125 17.625C57.7083 19.6667 58 21.7917 58 24H54C54 22.1667 53.7604 20.3958 53.2812 18.6875C52.8021 16.9792 52.125 15.3854 51.25 13.9062C50.3958 12.4271 49.3542 11.0833 48.125 9.875C46.9167 8.64583 45.5729 7.60417 44.0938 6.75C42.6146 5.875 41.0208 5.19792 39.3125 4.71875C37.6042 4.23958 35.8333 4 34 4V0ZM46 24C46 22.3542 45.6875 20.8021 45.0625 19.3438C44.4375 17.8854 43.5729 16.6146 42.4688 15.5312C41.3854 14.4271 40.1146 13.5625 38.6562 12.9375C37.1979 12.3125 35.6458 12 34 12V8C36.2083 8 38.2812 8.42708 40.2188 9.28125C42.1562 10.1146 43.8438 11.2604 45.2812 12.7188C46.7396 14.1562 47.8854 15.8438 48.7188 17.7812C49.5729 19.7188 50 21.7917 50 24H46Z" fill="#0078D4"/>
</svg>
