<svg width="300" height="200" viewBox="0 0 300 200" fill="none" xmlns="http://www.w3.org/2000/svg">
<path d="M226.145 119.261V131.299C226.145 137.277 221.313 142.092 215.314 142.092H184.07" stroke="#FF8C00" stroke-width="2.5" stroke-miterlimit="10"/>
<path d="M130.479 168.061H88.4035C82.4047 168.061 77.5723 163.246 77.5723 157.268V125.305" stroke="#FF8C00" stroke-width="2.5" stroke-miterlimit="10"/>
<path d="M116.052 106.008H39V120.511C39 120.511 39 120.511 39 120.588C39 120.588 39 120.588 39 120.666V120.821C39.2335 130.438 56.3561 138.271 77.5259 138.271C98.6956 138.271 115.818 130.515 116.052 120.821V106.008Z" fill="#459BDC"/>
<path d="M77.5259 123.845C98.8031 123.845 116.052 115.685 116.052 105.62C116.052 95.5543 98.8031 87.3945 77.5259 87.3945C56.2486 87.3945 39 95.5543 39 105.62C39 115.685 56.2486 123.845 77.5259 123.845Z" fill="#C5DFF5"/>
<path d="M116.052 88.1689H39V102.672C39 102.672 39 102.672 39 102.749C39 102.827 39 102.749 39 102.827V102.982C39.2335 112.599 56.3561 120.432 77.5259 120.432C98.6956 120.432 115.818 112.676 116.052 102.982V88.1689Z" fill="#459BDC"/>
<path d="M77.5259 106.007C98.8031 106.007 116.052 97.8476 116.052 87.782C116.052 77.7164 98.8031 69.5566 77.5259 69.5566C56.2486 69.5566 39 77.7164 39 87.782C39 97.8476 56.2486 106.007 77.5259 106.007Z" fill="#C5DFF5"/>
<path d="M116.052 71.1074H39V85.6102C39 85.6102 39 85.6102 39 85.6877C39 85.7653 39 85.6877 39 85.7653V85.9204C39.2335 95.5372 56.3561 103.37 77.5259 103.37C98.6956 103.37 115.818 95.6147 116.052 85.9204V71.1074Z" fill="#459BDC"/>
<path d="M77.5259 88.9449C98.8031 88.9449 116.052 80.7851 116.052 70.7195C116.052 60.6539 98.8031 52.4941 77.5259 52.4941C56.2486 52.4941 39 60.6539 39 70.7195C39 80.7851 56.2486 88.9449 77.5259 88.9449Z" fill="#C5DFF5"/>
<path d="M77.5703 69.4477V33.333C77.5703 27.3553 82.4027 22.54 88.4015 22.54H202.129" stroke="#FF8C00" stroke-width="2.5" stroke-miterlimit="10"/>
<path d="M261.39 46.1185C261.39 26.6912 245.476 11 225.73 11C205.984 11 190.07 26.6912 190.07 46.0355C190.07 55.5831 193.986 64.7155 200.985 71.2743C207.317 77.418 210.816 85.7202 210.733 94.4376V95.1018H240.727V94.4376C240.81 85.5542 244.476 77.0859 250.975 70.8592C257.64 64.3834 261.39 55.417 261.39 46.1185Z" fill="#9CC8EC"/>
<path d="M210.734 95.1846V111.623C210.734 114.031 212.734 115.94 215.15 115.94H215.4H221.566V120.091H230.73V115.94H236.313C238.729 115.94 240.729 114.031 240.729 111.623V95.1846H210.734Z" fill="#939393"/>
<path d="M210.734 99.3359H234.146C234.146 101.162 232.647 102.657 230.814 102.657H210.734V99.3359Z" fill="#B2B2B2"/>
<path d="M210.734 106.808H234.146C234.146 108.634 232.647 110.129 230.814 110.129H210.734V106.808Z" fill="#B2B2B2"/>
<path d="M205.732 40.8047H244.058" stroke="white" stroke-width="3" stroke-miterlimit="10"/>
<path d="M205.732 49.1074H244.058" stroke="white" stroke-width="3" stroke-miterlimit="10"/>
<path d="M205.732 57.4092H244.058" stroke="white" stroke-width="3" stroke-miterlimit="10"/>
<g clip-path="url(#clip0)">
<path d="M197.479 187.22L133.283 187.188C132.59 187.188 131.925 186.913 131.435 186.423C130.945 185.933 130.67 185.269 130.67 184.577L130.712 101.055C130.712 100.362 130.988 99.6978 131.478 99.2081C131.968 98.7185 132.632 98.4434 133.325 98.4434L196.987 98.4754C197.382 98.4628 197.776 98.5282 198.146 98.6679C198.517 98.8076 198.856 99.0188 199.144 99.2895C199.432 99.5602 199.665 99.8851 199.827 100.246C199.99 100.606 200.08 100.995 200.092 101.39V184.621C200.09 185.312 199.814 185.973 199.324 186.461C198.834 186.948 198.171 187.221 197.479 187.22Z" fill="#C2C2C2"/>
<path d="M195.615 182.743L135.15 182.697L135.197 102.171H195.615V182.743Z" fill="#459BDC"/>
<path d="M182.229 94.7107H171.882C171.882 94.7107 171.03 88.4626 165.649 88.4298C162.205 88.4089 159.41 91.3021 159.41 95.4568H149.312C148.746 95.4346 148.194 95.6379 147.778 96.022C147.362 96.4062 147.116 96.9397 147.093 97.5054C147.089 97.5842 147.089 97.6631 147.093 97.7419C147.093 98.3484 147.14 105.202 147.14 105.202L184.394 105.179L184.415 96.9727C184.415 96.3859 184.188 95.8219 183.78 95.3999C183.372 94.9778 182.816 94.7307 182.229 94.7107ZM165.395 97.5457C164.671 97.5345 163.982 97.2364 163.478 96.7169C162.974 96.1974 162.697 95.4991 162.708 94.7756C162.707 94.0633 162.99 93.38 163.493 92.8759C163.997 92.3718 164.68 92.0882 165.393 92.0876C166.106 92.087 166.79 92.3694 167.294 92.8727C167.798 93.3759 168.082 94.0588 168.083 94.7711V94.7756C168.088 95.134 168.023 95.49 167.891 95.8232C167.759 96.1565 167.563 96.4605 167.313 96.7178C167.064 96.9752 166.766 97.1809 166.437 97.3232C166.108 97.4655 165.754 97.5416 165.395 97.5472V97.5457Z" fill="#D2D2D2"/>
<path fill-rule="evenodd" clip-rule="evenodd" d="M154.43 114.878C155.135 114.879 155.767 115.315 156.024 115.975L165.174 139.492L173.874 121.009C174.153 120.416 174.742 120.033 175.394 120.021C176.046 120.01 176.648 120.371 176.948 120.953L181.57 129.926H187.737V133.379H180.527C179.886 133.379 179.299 133.02 179.004 132.447L175.494 125.634L166.574 144.583C166.281 145.205 165.649 145.593 164.965 145.569C164.281 145.545 163.676 145.115 163.427 144.473L154.418 121.317L149.349 134.194C149.09 134.852 148.458 135.285 147.754 135.285H140.74V131.831H146.589L152.832 115.969C153.092 115.309 153.726 114.877 154.43 114.878Z" fill="white"/>
<path fill-rule="evenodd" clip-rule="evenodd" d="M187.471 155.405H141.658V159.313H187.471V155.405ZM187.471 165.675H141.658V169.583H187.471V165.675Z" fill="white"/>
</g>
<defs>
<clipPath id="clip0">
<rect width="69.42" height="98.79" fill="white" transform="translate(130.67 88.4297)"/>
</clipPath>
</defs>
</svg>
