<svg width="300" height="200" viewBox="0 0 300 200" fill="none" xmlns="http://www.w3.org/2000/svg">
<path d="M74.9675 142.022H60V182.523H74.9675V142.022Z" fill="#9CC8EC"/>
<path d="M93.4557 129.696H78.4883V182.523H93.4557V129.696Z" fill="#459BDC"/>
<path d="M111.946 115.609H96.9785V182.523H111.946V115.609Z" fill="#9CC8EC"/>
<path d="M129.555 124.413H114.588V182.522H129.555V124.413Z" fill="#459BDC"/>
<path d="M148.044 102.402H133.076V182.522H148.044V102.402Z" fill="#9CC8EC"/>
<path d="M165.651 111.207H150.684V182.523H165.651V111.207Z" fill="#459BDC"/>
<path d="M184.141 84.7939H169.174V182.523H184.141V84.7939Z" fill="#9CC8EC"/>
<path d="M202.632 67.1855H187.664V182.523H202.632V67.1855Z" fill="#459BDC"/>
<path d="M220.239 90.9561H205.271V182.522H220.239V90.9561Z" fill="#9CC8EC"/>
<path d="M238.729 60.1416H223.762V182.523H238.729V60.1416Z" fill="#459BDC"/>
<path fill-rule="evenodd" clip-rule="evenodd" d="M236.543 22.4188L233.334 19.75L215.043 41.6517L182.229 32.9949L138.589 84.7959L110.471 73.5739L62.7793 117.68L65.6191 120.739L111.373 78.426L139.843 89.7895L183.722 37.7032L216.547 46.3607L236.543 22.4188Z" fill="#E6E6E6"/>
<path d="M70.336 118.566C70.7644 115.932 68.9715 113.45 66.3315 113.023C63.6915 112.595 61.2041 114.384 60.7757 117.018C60.3473 119.653 62.1402 122.135 64.7802 122.562C67.4202 122.989 69.9076 121.201 70.336 118.566Z" fill="#FF9F2B"/>
<path d="M111.423 82.6233C114.104 82.6233 116.277 80.4553 116.277 77.7809C116.277 75.1065 114.104 72.9385 111.423 72.9385C108.743 72.9385 106.57 75.1065 106.57 77.7809C106.57 80.4553 108.743 82.6233 111.423 82.6233Z" fill="#FF9F2B"/>
<path d="M139.453 90.7327C142.133 90.7327 144.306 88.5647 144.306 85.8903C144.306 83.2159 142.133 81.0479 139.453 81.0479C136.772 81.0479 134.6 83.2159 134.6 85.8903C134.6 88.5647 136.772 90.7327 139.453 90.7327Z" fill="#FF9F2B"/>
<path d="M183.974 41.4915C186.655 41.4915 188.827 39.3234 188.827 36.6491C188.827 33.9747 186.655 31.8066 183.974 31.8066C181.294 31.8066 179.121 33.9747 179.121 36.6491C179.121 39.3234 181.294 41.4915 183.974 41.4915Z" fill="#FF9F2B"/>
<path d="M215.3 47.9573C217.981 47.9573 220.154 45.7893 220.154 43.1149C220.154 40.4405 217.981 38.2725 215.3 38.2725C212.62 38.2725 210.447 40.4405 210.447 43.1149C210.447 45.7893 212.62 47.9573 215.3 47.9573Z" fill="#FF9F2B"/>
<path d="M235.088 26.6848C237.768 26.6848 239.941 24.5168 239.941 21.8424C239.941 19.168 237.768 17 235.088 17C232.407 17 230.234 19.168 230.234 21.8424C230.234 24.5168 232.407 26.6848 235.088 26.6848Z" fill="#FF9F2B"/>
</svg>
