<svg width="300" height="200" viewBox="0 0 300 200" fill="none" xmlns="http://www.w3.org/2000/svg">
<path d="M223.064 157.247L249.986 138.867L196.064 102.807" stroke="#B2B2B2" stroke-width="2.5" stroke-miterlimit="10"/>
<path d="M215.182 71.2631L216.43 104.208L243.898 86.6061V52.8047L215.182 71.2631Z" fill="#B2B2B2"/>
<path d="M215.962 71.4188L216.43 104.286L188.962 86.2167L188.494 53.1162L215.962 71.4188Z" fill="#939393"/>
<path d="M215.962 71.419L243.976 52.8048L216.742 34.8916L188.494 53.1942L215.962 71.419Z" fill="#D2D2D2"/>
<path d="M216.743 59.5025L227.59 52.2593C227.746 52.1815 227.902 52.0257 227.98 51.8699C228.058 51.7142 228.136 51.5584 228.136 51.3247C228.136 51.169 228.058 50.9353 227.98 50.7795C227.902 50.6238 227.746 50.468 227.59 50.3901L217.055 43.4585C216.899 43.3027 216.665 43.3027 216.431 43.3027C216.197 43.3027 216.041 43.3806 215.807 43.4585L204.882 50.5459C204.726 50.6238 204.57 50.7796 204.492 50.9353C204.414 51.0911 204.336 51.2469 204.336 51.4805C204.336 51.6363 204.414 51.8699 204.492 52.0257C204.57 52.1815 204.726 52.3372 204.882 52.4151L215.495 59.5025C215.651 59.6583 215.885 59.6583 216.119 59.6583C216.353 59.7362 216.587 59.6583 216.743 59.5025Z" fill="#939393"/>
<path d="M222.361 50.3129C222.673 50.0014 222.907 49.5341 222.985 49.0668L222.673 40.1102C222.673 39.8765 222.595 39.7207 222.439 39.4871C222.361 39.3313 222.205 39.1755 221.971 39.0198C221.815 38.864 221.581 38.7861 221.347 38.7861C221.113 38.7861 220.878 38.7861 220.722 38.7861C220.254 38.7861 219.786 39.0198 219.474 39.3313C219.162 39.6429 218.928 40.1102 218.85 40.5775L219.084 49.4562C219.084 49.6898 219.162 49.9235 219.318 50.0792C219.474 50.235 219.552 50.3908 219.786 50.5465C219.942 50.7023 220.176 50.7802 220.41 50.7802C220.644 50.7802 220.878 50.7802 221.035 50.7802C221.503 50.7802 221.971 50.6244 222.361 50.3129Z" fill="#B2B2B2"/>
<path d="M213.933 55.2194C214.246 54.9079 214.48 54.4406 214.558 53.9733L214.324 45.0945C214.324 44.8609 214.246 44.7051 214.09 44.4715C214.012 44.3157 213.855 44.1599 213.621 44.0042C213.465 43.8484 213.231 43.7705 212.997 43.7705C212.763 43.7705 212.529 43.7705 212.373 43.7705C211.905 43.7705 211.436 44.0042 211.124 44.3157C210.812 44.6272 210.578 45.0945 210.5 45.5618L210.734 54.4406C210.734 54.6742 210.812 54.83 210.968 55.0636C211.046 55.2194 211.202 55.3752 211.436 55.5309C211.592 55.6867 211.827 55.7646 212.061 55.7646C212.295 55.7646 212.529 55.7646 212.685 55.7646C213.153 55.7646 213.543 55.5309 213.933 55.2194Z" fill="#B2B2B2"/>
<path d="M182.019 106.389L148.854 126.093L104.688 154.676" stroke="#B2B2B2" stroke-width="2.5" stroke-miterlimit="10"/>
<path d="M106.795 56.9326L153.381 86.8399" stroke="#B2B2B2" stroke-width="2.5" stroke-miterlimit="10"/>
<path d="M161.964 71.8087V104.753L134.73 86.7624L134.496 53.584L161.964 71.8087Z" fill="#B2B2B2"/>
<path d="M161.964 71.8867L189.666 53.4283L162.744 35.3594L134.496 53.5841L161.964 71.8867Z" fill="#D2D2D2"/>
<path d="M188.184 89.7213V122.822L216.9 104.052L216.744 71.0293L188.184 89.7213Z" fill="#389FE5"/>
<path d="M188.573 89.7998L216.587 71.1857L189.354 53.2725L161.105 71.5751L188.573 89.7998Z" fill="#7BC0EF"/>
<path d="M188.417 78.5845L199.264 71.3414C199.42 71.2635 199.576 71.1077 199.654 70.952C199.732 70.7962 199.81 70.6404 199.81 70.4068C199.81 70.251 199.732 70.0173 199.654 69.8616C199.576 69.7058 199.42 69.55 199.264 69.4722L188.729 62.5405C188.573 62.3848 188.339 62.3848 188.105 62.3848C187.871 62.3848 187.715 62.4627 187.481 62.5405L176.556 69.6279C176.4 69.7058 176.244 69.8616 176.166 70.0174C176.088 70.1731 176.01 70.3289 176.01 70.5625C176.01 70.7183 176.088 70.952 176.166 71.1077C176.244 71.2635 176.4 71.4193 176.556 71.4971L187.169 78.5845C187.325 78.7403 187.559 78.7403 187.793 78.7403C187.949 78.8182 188.183 78.7403 188.417 78.5845Z" fill="#2488D8"/>
<path d="M160.715 107.947V141.047L188.573 122.589L188.729 89.7998L160.715 107.947Z" fill="#B2B2B2"/>
<path d="M160.716 107.946V140.891L133.326 122.9L133.17 89.6436L160.716 107.946Z" fill="#939393"/>
<path d="M160.638 108.024L188.574 89.7995L161.34 71.4189L133.17 89.7995L160.638 108.024Z" fill="#D2D2D2"/>
<path d="M95.4785 36.4499V69.5503L124.195 50.7804L124.039 17.7578L95.4785 36.4499Z" fill="#B2B2B2"/>
<path d="M95.4794 36.4498V69.3946L68.0115 51.3256L67.8555 18.0693L95.4794 36.4498Z" fill="#939393"/>
<path d="M89.2358 40.577V55.0633C89.2358 55.2191 89.1577 55.3748 89.0797 55.5306C89.0017 55.6864 88.9236 55.7642 88.7676 55.8421C88.6115 55.92 88.4554 55.92 88.2994 55.92C88.1433 55.92 87.9872 55.8421 87.9092 55.7642L75.892 47.8201C75.814 47.7422 75.6579 47.6644 75.5799 47.5086C75.5019 47.3528 75.5019 47.2749 75.5019 47.1192L75.4238 32.555C75.4238 32.3992 75.5019 32.2434 75.5799 32.0877C75.6579 31.9319 75.736 31.854 75.892 31.7761C76.0481 31.6982 76.2042 31.6982 76.3602 31.6982C76.5163 31.6982 76.6724 31.7761 76.7504 31.854L88.9236 39.9539C89.0017 40.0318 89.1577 40.1097 89.2358 40.2654C89.2358 40.2654 89.2358 40.4212 89.2358 40.577Z" fill="#B2B2B2"/>
<path d="M95.4794 36.5274L124.04 17.7574L96.1817 0L67.9336 18.1469L95.4794 36.5274Z" fill="#D2D2D2"/>
<path d="M78.7811 41.0451C78.9371 41.2009 79.0152 41.3567 79.0932 41.5903C79.1713 41.824 79.1712 41.9797 79.1712 42.2134C79.1712 42.447 79.0932 42.6028 79.0152 42.8365C78.9372 42.9922 78.7811 43.2259 78.625 43.3038L71.4459 47.8989C71.0558 48.1325 70.5876 48.1325 70.1194 48.0547C69.6512 47.9768 69.339 47.6652 69.0269 47.2758C68.8708 47.1201 68.7928 46.9643 68.7148 46.7306C68.6367 46.497 68.6367 46.3412 68.6367 46.1076C68.6367 45.8739 68.7148 45.7182 68.7928 45.4845C68.8708 45.3287 69.0269 45.0951 69.183 45.0172L76.362 40.4221C76.7522 40.1884 77.2204 40.1884 77.6886 40.2663C78.0788 40.4221 78.4689 40.7336 78.7811 41.0451Z" fill="#D2D2D2"/>
<path d="M86.9744 45.4836C87.1305 45.6394 87.2085 45.7951 87.2866 46.0288C87.3646 46.2625 87.3646 46.4182 87.3646 46.6519C87.3646 46.8855 87.2866 47.0413 87.2085 47.2749C87.1305 47.4307 86.9744 47.6644 86.8184 47.7422L79.6393 52.3374C79.2491 52.571 78.7809 52.571 78.3127 52.4931C77.8445 52.4152 77.5324 52.1037 77.2202 51.7143C77.0642 51.5585 76.9861 51.4028 76.9081 51.1691C76.8301 50.9355 76.8301 50.7797 76.8301 50.546C76.8301 50.3124 76.9081 50.1566 76.9861 49.923C77.0642 49.7672 77.2202 49.5336 77.3763 49.4557L84.5554 44.8605C84.9456 44.6269 85.4138 44.6269 85.882 44.7048C86.2721 44.8606 86.6623 45.1721 86.9744 45.4836Z" fill="#D2D2D2"/>
<path d="M79.7164 166.515V199.616L51 180.846L51.1561 147.823L79.7164 166.515Z" fill="#939393"/>
<path d="M79.7168 166.593V199.538L107.185 181.391L107.341 148.135L79.7168 166.593Z" fill="#B2B2B2"/>
<path d="M85.959 170.643V185.13C85.959 185.285 86.037 185.441 86.1151 185.597C86.1931 185.753 86.2711 185.831 86.4272 185.909C86.5833 185.986 86.7393 185.986 86.8954 185.986C87.0515 185.986 87.2075 185.909 87.2856 185.831L99.3027 177.887C99.3808 177.809 99.5368 177.731 99.6149 177.575C99.6929 177.419 99.6929 177.341 99.6929 177.186L99.7709 162.621C99.7709 162.466 99.6929 162.31 99.6149 162.154C99.5368 161.998 99.4588 161.92 99.3027 161.843C99.1467 161.765 98.9906 161.765 98.8345 161.765C98.6785 161.765 98.5224 161.843 98.4444 161.92L86.2711 170.02C86.1931 170.098 86.037 170.176 85.959 170.332C86.037 170.41 85.959 170.488 85.959 170.643Z" fill="#939393"/>
<path d="M79.4828 166.593L51.4688 148.057L78.7025 130.144L106.951 148.446L79.4828 166.593Z" fill="#D2D2D2"/>
<path d="M96.1812 171.188C96.0251 171.343 95.9471 171.499 95.869 171.733C95.791 171.967 95.791 172.122 95.791 172.356C95.791 172.59 95.869 172.745 95.9471 172.979C96.0251 173.135 96.1812 173.368 96.3372 173.446L103.516 178.041C103.907 178.275 104.375 178.275 104.843 178.197C105.311 178.119 105.623 177.808 105.935 177.418C106.091 177.263 106.169 177.107 106.248 176.873C106.326 176.64 106.326 176.484 106.326 176.25C106.326 176.016 106.248 175.861 106.169 175.627C106.091 175.471 105.935 175.238 105.779 175.16L98.6002 170.565C98.2101 170.331 97.7419 170.331 97.2737 170.409C96.8835 170.487 96.4933 170.798 96.1812 171.188Z" fill="#D2D2D2"/>
<path d="M87.9878 175.627C87.8318 175.783 87.7537 175.939 87.6757 176.172C87.5977 176.406 87.5977 176.562 87.5977 176.795C87.5977 177.029 87.6757 177.185 87.7537 177.418C87.8318 177.574 87.9878 177.808 88.1439 177.886L95.323 182.481C95.7131 182.715 96.1813 182.715 96.6495 182.637C97.1177 182.559 97.4299 182.247 97.742 181.858C97.8981 181.702 97.9761 181.546 98.0542 181.313C98.1322 181.079 98.1322 180.923 98.1322 180.69C98.1322 180.456 98.0542 180.3 97.9761 180.067C97.8981 179.911 97.742 179.677 97.586 179.599L90.4069 175.004C90.0167 174.77 89.5485 174.77 89.0803 174.848C88.6901 174.926 88.3 175.238 87.9878 175.627Z" fill="#D2D2D2"/>
<path d="M153.302 111.529C153.224 111.373 153.146 111.295 152.99 111.218L142.612 104.286L140.817 103.118C140.661 103.04 140.505 102.962 140.427 102.962C140.271 102.962 140.115 102.962 139.958 103.04C139.802 103.118 139.724 103.196 139.646 103.351C139.568 103.507 139.49 103.663 139.49 103.819L139.568 118.383C139.568 118.539 139.568 118.694 139.646 118.772C139.724 118.928 139.802 119.006 139.958 119.084L151.976 127.028C152.132 127.106 152.288 127.184 152.366 127.184C152.522 127.184 152.678 127.184 152.834 127.106C152.99 127.028 153.068 126.95 153.146 126.794C153.224 126.639 153.302 126.483 153.302 126.327V111.841C153.38 111.763 153.38 111.607 153.302 111.529Z" fill="#B2B2B2"/>
<path d="M142.066 111.685C141.597 111.607 141.129 111.607 140.739 111.841L133.56 116.436C133.404 116.592 133.248 116.748 133.17 116.903C133.092 117.059 133.014 117.293 133.014 117.527C133.014 117.76 133.014 117.916 133.092 118.15C133.17 118.383 133.248 118.539 133.404 118.695C133.638 119.084 134.028 119.318 134.496 119.474C134.965 119.551 135.433 119.551 135.823 119.318L143.002 114.723C143.158 114.567 143.314 114.411 143.392 114.255C143.47 114.1 143.548 113.866 143.548 113.632C143.548 113.399 143.548 113.243 143.47 113.009C143.392 112.776 143.314 112.62 143.158 112.464C142.846 112.075 142.534 111.763 142.066 111.685Z" fill="#D2D2D2"/>
<path d="M150.259 116.125C149.791 116.047 149.323 116.047 148.932 116.28L141.753 120.876C141.597 121.031 141.441 121.187 141.363 121.343C141.285 121.499 141.207 121.732 141.207 121.966C141.207 122.2 141.207 122.355 141.285 122.589C141.363 122.823 141.441 122.978 141.597 123.134C141.831 123.524 142.221 123.757 142.69 123.913C143.158 123.991 143.626 123.991 144.016 123.757L151.195 119.162C151.351 119.006 151.507 118.851 151.586 118.695C151.664 118.539 151.742 118.305 151.742 118.072C151.742 117.838 151.742 117.682 151.664 117.449C151.586 117.215 151.507 117.059 151.351 116.904C151.117 116.514 150.727 116.203 150.259 116.125Z" fill="#D2D2D2"/>
<path d="M214.326 164.802L214.248 197.357L242.262 179.055L242.106 146.032L214.326 164.802Z" fill="#FF9F2B"/>
<path d="M214.325 164.646V197.591L187.248 179.6L186.857 146.499L214.325 164.646Z" fill="#F27101"/>
<path d="M214.325 164.802L242.339 146.188L215.106 128.274L186.857 146.577L214.325 164.802Z" fill="#FF9F2B"/>
<path d="M214.325 164.802L242.339 146.188L215.106 128.274L186.857 146.577L214.325 164.802Z" fill="white" fill-opacity="0.3"/>
<path d="M215.028 153.898L225.875 146.655C226.031 146.577 226.187 146.421 226.265 146.265C226.343 146.11 226.421 145.954 226.421 145.72C226.421 145.564 226.343 145.331 226.265 145.175C226.187 145.019 226.031 144.864 225.875 144.786L215.341 137.854C215.185 137.698 214.95 137.698 214.716 137.698C214.482 137.698 214.326 137.776 214.092 137.854L203.167 144.941C203.011 145.019 202.855 145.175 202.777 145.331C202.699 145.487 202.621 145.642 202.621 145.876C202.621 146.032 202.699 146.265 202.777 146.421C202.855 146.577 203.011 146.733 203.167 146.811L213.78 153.898C213.936 154.054 214.17 154.054 214.404 154.054C214.638 154.132 214.872 154.054 215.028 153.898Z" fill="#F27101"/>
<path d="M219.787 143.774C220.099 143.462 220.333 142.995 220.411 142.527L220.177 133.493C220.177 133.259 220.099 133.026 219.943 132.87C219.787 132.714 219.631 132.48 219.475 132.403C219.319 132.247 219.085 132.169 218.851 132.169C218.616 132.169 218.382 132.169 218.226 132.169C217.758 132.169 217.29 132.403 216.978 132.714C216.666 133.026 216.432 133.493 216.354 133.96L216.588 142.995C216.588 143.228 216.666 143.462 216.822 143.618C216.978 143.774 217.134 144.007 217.29 144.085C217.446 144.241 217.68 144.319 217.914 144.319C218.148 144.319 218.382 144.319 218.538 144.319C218.929 144.319 219.397 144.085 219.787 143.774Z" fill="#D2D2D2"/>
<path d="M211.283 148.758C211.595 148.446 211.829 147.979 211.907 147.512L211.673 138.477C211.673 138.244 211.595 138.01 211.439 137.854C211.283 137.698 211.127 137.465 210.971 137.387C210.815 137.231 210.581 137.153 210.347 137.153C210.113 137.153 209.878 137.153 209.722 137.153C209.254 137.153 208.786 137.387 208.474 137.699C208.162 138.01 207.928 138.477 207.85 138.945L208.084 147.979C208.084 148.213 208.162 148.446 208.318 148.602C208.474 148.758 208.63 148.992 208.786 149.069C208.942 149.225 209.176 149.303 209.41 149.303C209.644 149.303 209.878 149.303 210.035 149.303C210.425 149.303 210.893 149.069 211.283 148.758Z" fill="#D2D2D2"/>
<path d="M193.334 68.5377C193.646 68.2262 193.88 67.7589 193.958 67.2916L193.724 58.4129C193.724 58.1792 193.646 58.0235 193.49 57.7898C193.412 57.634 193.256 57.4783 193.022 57.3225C192.866 57.1667 192.632 57.0889 192.397 57.0889C192.163 57.0889 191.929 57.0889 191.773 57.0889C191.305 57.0889 190.837 57.3225 190.525 57.634C190.213 57.9456 189.978 58.4129 189.9 58.8802L190.134 67.7589C190.134 67.9925 190.213 68.2262 190.369 68.382C190.447 68.5377 190.603 68.6935 190.837 68.8493C190.993 69.005 191.227 69.0829 191.461 69.0829C191.695 69.0829 191.929 69.0829 192.085 69.0829C192.554 69.0829 193.022 68.8493 193.334 68.5377Z" fill="#D2D2D2"/>
<path d="M184.906 73.444C185.218 73.1325 185.452 72.6652 185.53 72.1979L185.296 63.3191C185.296 63.0855 185.218 62.9297 185.062 62.6961C184.984 62.5403 184.828 62.3845 184.594 62.2288C184.438 62.073 184.204 61.9951 183.97 61.9951C183.736 61.9951 183.502 61.9951 183.345 61.9951C182.877 61.9951 182.409 62.2288 182.097 62.5403C181.785 62.8518 181.551 63.3191 181.473 63.7864L181.707 72.6652C181.707 72.8988 181.785 73.0546 181.941 73.2882C182.019 73.444 182.175 73.5998 182.409 73.7555C182.565 73.9113 182.799 73.9892 183.033 73.9892C183.267 73.9892 183.502 73.9892 183.658 73.9892C184.126 73.9892 184.594 73.7555 184.906 73.444Z" fill="#D2D2D2"/>
</svg>
