<svg width="300" height="200" viewBox="0 0 300 200" fill="none" xmlns="http://www.w3.org/2000/svg">
<g clip-path="url(#clip0)">
<path d="M98.9023 64.6277L173.168 17.853C177.026 15.5832 181.446 14.2051 186.269 14.2051C200.415 14.2051 211.828 25.7163 211.828 39.9838C211.828 48.5767 207.648 56.1969 201.299 60.8176L136.196 102.161C128.721 106.619 123.658 114.888 123.658 124.292C123.658 138.559 135.071 150.07 149.216 150.07C154.843 150.07 159.987 148.287 164.246 145.125L230.233 103.296" stroke="#B2B2B2" stroke-width="2.5557" stroke-miterlimit="10" stroke-dasharray="3 3"/>
<path d="M232.977 131.163C248.27 131.163 260.667 118.766 260.667 103.473C260.667 88.1805 248.27 75.7832 232.977 75.7832C217.684 75.7832 205.287 88.1805 205.287 103.473C205.287 118.766 217.684 131.163 232.977 131.163Z" fill="#9CC8EC"/>
<path d="M260.667 104.931C260.667 104.442 260.667 103.954 260.667 103.547C260.667 88.2401 248.306 75.7832 232.977 75.7832V104.931H260.667Z" fill="#459BDC"/>
<path d="M152.032 149.259C147.049 163.526 131.537 171.066 117.391 166.039C103.245 161.013 95.7706 145.368 100.754 131.019C105.737 116.752 121.249 109.213 135.475 114.239C149.621 119.265 157.096 134.991 152.032 149.259Z" fill="#459BDC"/>
<path d="M228.386 36.5783C223.403 50.8458 207.891 58.3849 193.745 53.3588C179.599 48.3328 172.124 32.6872 177.107 18.3386C182.091 4.07112 197.683 -3.46795 211.829 1.5581C225.975 6.58415 233.45 22.3108 228.386 36.5783Z" fill="#9CC8EC"/>
<path d="M220.268 29.526V24.7432L215.204 23.9325C214.883 22.7976 214.481 21.6627 213.838 20.6899L216.892 16.4745L213.516 13.0698L209.337 16.1503C208.372 15.5828 207.247 15.0964 206.202 14.8532L205.398 9.66504H200.656L199.853 14.8532C198.727 15.1775 197.682 15.5828 196.718 16.1503L192.539 13.0698L189.163 16.4745L192.217 20.6899C191.574 21.6627 191.172 22.7976 190.851 23.9325L185.787 24.7432V29.526L190.77 30.3367C191.092 31.5527 191.494 32.6876 192.137 33.7414L189.243 37.7947L192.539 41.1994L196.557 38.2811C197.602 38.9296 198.727 39.416 199.933 39.7403L200.737 44.6042H205.479L206.282 39.7403C207.488 39.416 208.613 38.9296 209.658 38.2811L213.677 41.1994L217.053 37.7947L214.159 33.7414C214.802 32.6876 215.204 31.5527 215.526 30.3367L220.268 29.526ZM202.987 33.5793C199.772 33.5793 197.12 30.9041 197.12 27.6615C197.12 24.4189 199.772 21.7438 202.987 21.7438C206.202 21.7438 208.854 24.4189 208.854 27.6615C208.774 30.9852 206.202 33.5793 202.987 33.5793Z" fill="white"/>
<path d="M99 32H69.1252C68.4822 32 68 32.4864 68 33.1349V92.4747C68 93.1232 68.4822 93.6096 69.1252 93.6096L114.875 93.6349C115.518 93.6349 116 93.1485 116 92.5V49L99 32Z" fill="#FF9F2B"/>
<path d="M116 49L99 32V47.8888C99 48.5373 99.4822 49.0237 100.125 49.0237L116 49Z" fill="#F27101"/>
<path d="M106.332 52.7109H78.2012V55.9535H106.332V52.7109Z" fill="white"/>
<path d="M106.332 60.0078H78.2012V63.2504H106.332V60.0078Z" fill="white"/>
<path d="M106.332 66.4922H78.2012V69.7348H106.332V66.4922Z" fill="white"/>
<path d="M86.2396 81.083H77.3984V86.7576H86.2396V81.083Z" fill="#F27101"/>
<path d="M97.4915 77.8408H88.6504V86.758H97.4915V77.8408Z" fill="#F27101"/>
<path d="M108.743 73.7871H99.9023V86.7575H108.743V73.7871Z" fill="#F27101"/>
<path d="M127.835 122.426H124.942C124.299 122.426 123.816 122.831 123.816 123.399V126.479H128.639V123.399C128.639 122.831 128.157 122.426 127.514 122.426" fill="#1170C4"/>
<path d="M139.168 152.745L129.442 137.504V128.911H131.854V126.479H121.405V128.911H123.816V137.748L113.769 152.664C112.644 154.285 113.85 156.474 115.779 156.474H137.078C139.007 156.474 140.212 154.366 139.168 152.745Z" fill="white"/>
<path fill-rule="evenodd" clip-rule="evenodd" d="M232.977 104.931L250.578 124.533C256.363 119.817 260.116 112.817 260.683 104.931H232.977Z" fill="#1170C4"/>
</g>
<path d="M35.2567 102.004L29.1126 94.1702C28.8054 93.7094 28.575 93.1718 28.4982 92.6342L27.7301 83.1876C27.6533 82.5732 27.8069 81.9588 28.1909 81.4212L32.5686 74.8163L33.183 75.1235C34.0279 75.5843 34.7959 76.2755 35.1799 77.1971L37.3303 67.9809C37.4071 67.6737 37.5607 67.2897 37.7143 66.9825L42.9368 57.8431L44.1657 58.5344C45.0873 59.072 45.8553 59.9168 46.1625 60.9152C46.5465 61.9136 46.5465 63.0656 46.2393 64.0641L43.7816 70.8226L42.7064 80.1156L44.6265 86.9509L44.1657 77.9651C44.1657 77.4275 44.2425 76.8131 44.4729 76.2755L50.233 62.6048C50.3866 62.0672 50.6938 61.6064 51.0778 61.2224L60.6012 51.0078L62.1372 52.5438C62.9052 53.3119 63.4428 54.3103 63.5964 55.3855C63.75 56.4607 63.5196 57.5359 62.982 58.4576L58.2203 65.2929L54.3034 77.8883L54.8411 82.0356L59.1419 73.357C59.3723 72.8194 59.8331 72.3586 60.294 72.0514C60.8316 71.7442 61.3692 71.5138 61.9836 71.5138L68 70.5V80L66.1309 80.9604L62.4444 89.3317L65.5933 101.774C65.9005 102.849 66.3613 103.847 67.0525 104.692C67.7437 105.537 68.5885 106.228 69.5869 106.689C70.5854 107.15 71.6606 107.457 72.7358 107.457C73.811 107.457 74.8862 107.303 75.9615 106.842L77.8047 106.074L84.7168 96.3207L84.1024 91.4054C84.1024 91.175 84.0256 90.8678 84.0256 90.6374C86.9441 92.711 90.0929 94.3238 93.549 95.4759L94.2402 99.1623L86.9441 118.824L58.6811 154.075L37.1767 141.71L35.2567 102.004Z" fill="#C2C2C2"/>
<path d="M37.178 92.327L34.3364 82.5732L33.5684 84.3397L35.7956 91.0214L37.178 92.327Z" fill="#A5A5A5"/>
<path d="M51.5375 141.635C53.5344 137.641 56.5296 134.338 60.2929 131.958L76.8052 121.743C77.9572 120.898 78.8789 119.746 79.4933 118.441L84.9462 107.304C86.559 102.773 84.7926 96.3985 84.7926 96.3985L84.1782 91.4832C84.1014 91.2528 84.1014 90.4848 84.1014 90.7152C84.0246 85.7999 88.5558 81.6527 91.9351 82.7279L94.316 99.1634L87.0198 118.825L58.8337 154.076L48.3887 148.086L51.5375 141.635Z" fill="#A5A5A5"/>
<path d="M93.092 90.4087C93.092 90.4087 89.7895 91.0231 89.4055 87.8743C88.8679 83.0358 92.0168 82.959 92.0168 82.959L93.092 90.4087Z" fill="#C2C2C2"/>
<path d="M14.2148 199.999L36.5915 141.05C46.4681 140.414 56.1903 143.354 64.2151 149.312L66.2213 150.822L57.6564 199.999H14.2148Z" fill="#C2C2C2"/>
<path d="M10 200L36.706 140.966C41.6379 140.648 46.5697 141.204 51.3372 142.475L31.0426 200H10Z" fill="#D2D2D2"/>
<defs>
<clipPath id="clip0">
<rect width="250.668" height="167.598" fill="white" transform="translate(39.1465)"/>
</clipPath>
</defs>
</svg>
