<svg width="300" height="133" viewBox="0 0 300 133" fill="none" xmlns="http://www.w3.org/2000/svg">
<path opacity="0.6" d="M124.619 110.582C124.619 108.62 123.059 107.01 121.147 106.909C121.147 106.909 121.097 106.909 120.996 106.909H120.946H120.896C119.236 106.909 110.783 106.909 110.783 106.909C108.721 106.909 107.061 108.569 107.061 110.632C107.061 112.695 108.721 114.355 110.783 114.355C110.783 114.355 119.236 114.355 120.896 114.355H120.946H120.996C121.097 114.355 121.147 114.355 121.147 114.355C123.11 114.154 124.619 112.544 124.619 110.582Z" fill="#B7D9F2"/>
<path opacity="0.7" d="M115.663 99.8154H31.4437C29.3809 99.8154 27.7207 101.476 27.7207 103.538C27.7207 105.601 29.3809 107.261 31.4437 107.261H115.663V99.8154Z" fill="#E2F0FA"/>
<path d="M115.411 107.212C117.468 107.212 119.134 105.545 119.134 103.489C119.134 101.432 117.468 99.7656 115.411 99.7656C113.355 99.7656 111.688 101.432 111.688 103.489C111.688 105.545 113.355 107.212 115.411 107.212Z" fill="#FF9F2B"/>
<path opacity="0.7" d="M103.84 114.657H59.2151C57.1524 114.657 55.4922 116.317 55.4922 118.38C55.4922 120.443 57.1524 122.103 59.2151 122.103H103.84V114.657Z" fill="#E2F0FA"/>
<path d="M103.639 122.103C105.695 122.103 107.362 120.436 107.362 118.38C107.362 116.324 105.695 114.657 103.639 114.657C101.583 114.657 99.916 116.324 99.916 118.38C99.916 120.436 101.583 122.103 103.639 122.103Z" fill="#89BFE9"/>
<path d="M111.034 122.103C113.091 122.103 114.757 120.436 114.757 118.38C114.757 116.324 113.091 114.657 111.034 114.657C108.978 114.657 107.312 116.324 107.312 118.38C107.312 120.436 108.978 122.103 111.034 122.103Z" fill="#C6E0F5"/>
<path d="M115.563 122.103C117.619 122.103 119.286 120.436 119.286 118.38C119.286 116.324 117.619 114.657 115.563 114.657C113.507 114.657 111.84 116.324 111.84 118.38C111.84 120.436 113.507 122.103 115.563 122.103Z" fill="#A9D1EF"/>
<path d="M121.7 114.305C123.757 114.305 125.423 112.638 125.423 110.582C125.423 108.526 123.757 106.859 121.7 106.859C119.644 106.859 117.978 108.526 117.978 110.582C117.978 112.638 119.644 114.305 121.7 114.305Z" fill="#459BDD"/>
<path opacity="0.6" d="M105.702 107.211C105.702 105.249 104.142 103.639 102.23 103.538C102.23 103.538 102.18 103.538 102.079 103.538H102.029H101.979C100.319 103.538 91.8665 103.538 91.8665 103.538C89.8038 103.538 88.1436 105.198 88.1436 107.261C88.1436 109.324 89.8038 110.984 91.8665 110.984C91.8665 110.984 100.319 110.984 101.979 110.984H102.029H102.079C102.18 110.984 102.23 110.984 102.23 110.984C104.142 110.783 105.702 109.173 105.702 107.211Z" fill="#B7D9F2"/>
<path opacity="0.7" d="M106.557 110.934C108.613 110.934 110.28 109.267 110.28 107.211C110.28 105.155 108.613 103.488 106.557 103.488C104.501 103.488 102.834 105.155 102.834 107.211C102.834 109.267 104.501 110.934 106.557 110.934Z" fill="#89BFE9"/>
<path d="M108.821 110.934C110.877 110.934 112.544 109.267 112.544 107.211C112.544 105.155 110.877 103.488 108.821 103.488C106.764 103.488 105.098 105.155 105.098 107.211C105.098 109.267 106.764 110.934 108.821 110.934Z" fill="#459BDD"/>
<path d="M115.864 105.4H115.311V101.928L114.707 102.331V101.777L115.311 101.375H115.864V105.4Z" fill="white"/>
<path d="M107.715 107.815V106.507C107.715 106.406 107.715 106.356 107.715 106.255C107.715 106.155 107.765 106.054 107.765 105.953C107.815 105.853 107.815 105.752 107.866 105.652C107.916 105.551 107.966 105.45 108.067 105.4C108.168 105.299 108.268 105.249 108.369 105.199C108.469 105.148 108.62 105.148 108.822 105.148C108.973 105.148 109.124 105.148 109.274 105.199C109.375 105.249 109.526 105.299 109.576 105.4C109.677 105.501 109.727 105.551 109.778 105.652C109.828 105.752 109.878 105.853 109.878 105.953C109.928 106.054 109.928 106.155 109.928 106.255C109.928 106.356 109.928 106.457 109.928 106.507V107.815C109.928 107.916 109.928 107.966 109.928 108.066C109.928 108.167 109.878 108.268 109.878 108.368C109.828 108.469 109.828 108.57 109.778 108.67C109.727 108.771 109.677 108.871 109.576 108.922C109.476 109.022 109.375 109.073 109.274 109.123C109.174 109.173 109.023 109.173 108.822 109.173C108.671 109.173 108.52 109.173 108.369 109.123C108.218 109.073 108.117 109.022 108.067 108.922C107.966 108.821 107.916 108.771 107.866 108.67C107.815 108.57 107.765 108.469 107.765 108.368C107.715 108.268 107.715 108.167 107.715 108.066C107.715 108.016 107.715 107.916 107.715 107.815ZM109.526 107.815V106.507C109.526 106.457 109.526 106.406 109.526 106.356C109.526 106.306 109.526 106.205 109.526 106.155C109.526 106.104 109.476 106.004 109.476 105.953C109.476 105.903 109.425 105.853 109.375 105.802C109.325 105.752 109.274 105.702 109.224 105.702C109.174 105.652 109.073 105.652 108.973 105.652C108.822 105.652 108.721 105.702 108.62 105.752C108.52 105.802 108.469 105.903 108.419 106.004C108.369 106.104 108.369 106.205 108.369 106.306C108.369 106.406 108.369 106.507 108.369 106.557V107.865C108.369 107.916 108.369 107.966 108.369 108.016C108.369 108.066 108.369 108.167 108.369 108.217C108.369 108.268 108.419 108.368 108.419 108.419C108.419 108.469 108.469 108.519 108.52 108.57C108.57 108.62 108.62 108.67 108.671 108.67C108.721 108.72 108.822 108.72 108.922 108.72C109.023 108.72 109.124 108.72 109.174 108.67C109.224 108.62 109.274 108.62 109.325 108.57C109.375 108.519 109.425 108.469 109.425 108.419C109.425 108.368 109.476 108.268 109.476 108.217C109.476 108.167 109.476 108.066 109.476 108.016C109.476 107.966 109.526 107.865 109.526 107.815Z" fill="white"/>
<path d="M102.482 118.984V117.676C102.482 117.575 102.482 117.525 102.482 117.424C102.482 117.324 102.533 117.223 102.533 117.122C102.583 117.022 102.583 116.921 102.633 116.82C102.684 116.72 102.734 116.619 102.835 116.569C102.935 116.519 103.036 116.418 103.136 116.368C103.237 116.317 103.388 116.317 103.589 116.317C103.74 116.317 103.891 116.317 104.042 116.368C104.143 116.418 104.294 116.468 104.344 116.569C104.394 116.67 104.495 116.72 104.545 116.82C104.595 116.921 104.646 117.022 104.646 117.122C104.696 117.223 104.696 117.324 104.696 117.424C104.696 117.525 104.696 117.625 104.696 117.676V118.984C104.696 119.084 104.696 119.135 104.696 119.235C104.696 119.336 104.646 119.437 104.646 119.537C104.595 119.638 104.595 119.738 104.545 119.839C104.495 119.94 104.445 120.04 104.344 120.091C104.243 120.191 104.143 120.242 104.042 120.292C103.941 120.342 103.79 120.342 103.589 120.342C103.438 120.342 103.287 120.342 103.136 120.292C102.986 120.242 102.885 120.191 102.835 120.091C102.734 119.99 102.684 119.94 102.633 119.839C102.583 119.738 102.533 119.638 102.533 119.537C102.482 119.437 102.482 119.336 102.482 119.235C102.482 119.135 102.482 119.084 102.482 118.984ZM104.243 118.984V117.676C104.243 117.625 104.243 117.575 104.243 117.525C104.243 117.475 104.243 117.374 104.243 117.324C104.243 117.273 104.193 117.173 104.193 117.122C104.193 117.072 104.143 117.022 104.092 116.971C104.042 116.921 103.992 116.871 103.941 116.871C103.891 116.82 103.79 116.82 103.69 116.82C103.539 116.82 103.438 116.871 103.338 116.921C103.237 116.971 103.187 117.072 103.136 117.173C103.086 117.273 103.086 117.374 103.086 117.475C103.086 117.575 103.086 117.676 103.086 117.726V119.034C103.086 119.084 103.086 119.135 103.086 119.185C103.086 119.235 103.086 119.336 103.086 119.386C103.086 119.437 103.136 119.537 103.136 119.588C103.136 119.638 103.187 119.688 103.237 119.738C103.287 119.789 103.338 119.839 103.388 119.839C103.438 119.889 103.539 119.889 103.64 119.889C103.74 119.889 103.841 119.889 103.891 119.839C103.941 119.789 103.992 119.789 104.042 119.738C104.092 119.688 104.143 119.638 104.143 119.588C104.143 119.537 104.193 119.437 104.193 119.386C104.193 119.336 104.193 119.235 104.193 119.185C104.243 119.084 104.243 119.034 104.243 118.984Z" fill="white"/>
<path d="M117.978 122.052C120.034 122.052 121.701 120.386 121.701 118.329C121.701 116.273 120.034 114.606 117.978 114.606C115.922 114.606 114.255 116.273 114.255 118.329C114.255 120.386 115.922 122.052 117.978 122.052Z" fill="#FF9F2B"/>
<path d="M116.972 118.832V117.524C116.972 117.424 116.972 117.373 116.972 117.273C116.972 117.172 117.022 117.072 117.022 116.971C117.072 116.87 117.072 116.77 117.123 116.669C117.173 116.568 117.223 116.468 117.324 116.418C117.424 116.317 117.525 116.267 117.626 116.216C117.726 116.166 117.877 116.166 118.079 116.166C118.229 116.166 118.38 116.166 118.531 116.216C118.632 116.267 118.783 116.317 118.833 116.418C118.934 116.518 118.984 116.568 119.034 116.669C119.085 116.77 119.135 116.87 119.135 116.971C119.185 117.072 119.185 117.172 119.185 117.273C119.185 117.373 119.185 117.474 119.185 117.524V118.832C119.185 118.933 119.185 118.983 119.185 119.084C119.185 119.185 119.135 119.285 119.135 119.386C119.085 119.487 119.085 119.587 119.034 119.688C118.984 119.788 118.934 119.889 118.833 119.939C118.733 120.04 118.632 120.09 118.531 120.141C118.431 120.191 118.28 120.191 118.079 120.191C117.928 120.191 117.777 120.191 117.626 120.141C117.475 120.09 117.374 120.04 117.324 119.939C117.223 119.839 117.173 119.788 117.123 119.688C117.072 119.587 117.022 119.487 117.022 119.386C116.972 119.285 116.972 119.185 116.972 119.084C116.972 119.034 116.972 118.933 116.972 118.832ZM118.733 118.832V117.524C118.733 117.474 118.733 117.424 118.733 117.373C118.733 117.323 118.733 117.223 118.733 117.172C118.733 117.122 118.682 117.021 118.682 116.971C118.682 116.921 118.632 116.87 118.582 116.82C118.531 116.77 118.481 116.719 118.431 116.719C118.38 116.669 118.28 116.669 118.179 116.669C118.028 116.669 117.928 116.719 117.827 116.77C117.726 116.82 117.676 116.921 117.626 117.021C117.575 117.122 117.575 117.223 117.575 117.323C117.575 117.424 117.575 117.524 117.575 117.575V118.883C117.575 118.933 117.575 118.983 117.575 119.034C117.575 119.084 117.575 119.185 117.575 119.235C117.575 119.285 117.626 119.386 117.626 119.436C117.626 119.486 117.676 119.537 117.726 119.587C117.777 119.637 117.827 119.688 117.877 119.688C117.928 119.738 118.028 119.738 118.129 119.738C118.229 119.738 118.33 119.738 118.38 119.688C118.431 119.637 118.481 119.637 118.531 119.587C118.582 119.537 118.632 119.486 118.632 119.436C118.632 119.386 118.682 119.285 118.682 119.235C118.682 119.185 118.682 119.084 118.682 119.034C118.733 118.983 118.733 118.883 118.733 118.832Z" fill="white"/>
<path opacity="0.6" d="M98.8092 112.896C98.8092 110.934 97.2496 109.324 95.3378 109.224C95.3378 109.224 95.2875 109.224 95.1869 109.224H95.1366H95.0863C93.4261 109.224 84.9739 109.224 84.9739 109.224C82.9112 109.224 81.251 110.884 81.251 112.947C81.251 115.009 82.9112 116.67 84.9739 116.67C84.9739 116.67 93.4261 116.67 95.0863 116.67H95.1366H95.1869C95.2875 116.67 95.3378 116.67 95.3378 116.67C97.2999 116.468 98.8092 114.858 98.8092 112.896Z" fill="#B7D9F2"/>
<path opacity="0.5" d="M73.5029 109.576C73.5029 107.614 71.9432 106.004 70.0314 105.903C70.0314 105.903 69.9811 105.903 69.8805 105.903H69.8302H69.7799C67.0128 105.903 10.6653 105.903 10.6653 105.903C8.60262 105.903 6.94238 107.564 6.94238 109.626C6.94238 111.689 8.60262 113.349 10.6653 113.349C10.6653 113.349 67.0128 113.349 69.7799 113.349H69.8302H69.8805C69.9811 113.349 70.0314 113.349 70.0314 113.349C71.9432 113.148 73.5029 111.538 73.5029 109.576Z" fill="#B7D9F2"/>
<path d="M95.64 106.658C97.6961 106.658 99.3629 104.991 99.3629 102.935C99.3629 100.879 97.6961 99.2119 95.64 99.2119C93.5838 99.2119 91.917 100.879 91.917 102.935C91.917 104.991 93.5838 106.658 95.64 106.658Z" fill="#459BDD"/>
<path d="M74.9622 106.557C77.0183 106.557 78.6852 104.89 78.6852 102.834C78.6852 100.778 77.0183 99.1113 74.9622 99.1113C72.9061 99.1113 71.2393 100.778 71.2393 102.834C71.2393 104.89 72.9061 106.557 74.9622 106.557Z" fill="#89BFE9"/>
<path d="M96.0927 104.847H95.5393V101.376L94.9355 101.778V101.225L95.5393 100.822H96.0927V104.847Z" fill="white"/>
<path d="M73.9053 103.287V101.978C73.9053 101.878 73.9053 101.828 73.9053 101.727C73.9053 101.626 73.9556 101.526 73.9556 101.425C74.0059 101.324 74.0059 101.224 74.0562 101.123C74.1065 101.023 74.1568 100.922 74.2575 100.872C74.3581 100.821 74.4587 100.721 74.5593 100.67C74.6599 100.62 74.8109 100.62 75.0121 100.62C75.2133 100.62 75.314 100.62 75.4649 100.67C75.5655 100.721 75.7164 100.771 75.7668 100.872C75.8171 100.972 75.9177 101.023 75.968 101.123C76.0183 101.224 76.0686 101.324 76.0686 101.425C76.1189 101.526 76.1189 101.626 76.1189 101.727C76.1189 101.828 76.1189 101.928 76.1189 101.978V103.287C76.1189 103.387 76.1189 103.437 76.1189 103.538C76.1189 103.639 76.0686 103.739 76.0686 103.84C76.0183 103.941 76.0183 104.041 75.968 104.142C75.9177 104.242 75.8674 104.343 75.7668 104.393C75.6661 104.494 75.5655 104.544 75.4649 104.595C75.3643 104.645 75.2133 104.645 75.0121 104.645C74.8109 104.645 74.7102 104.645 74.5593 104.595C74.4084 104.544 74.3078 104.494 74.2575 104.393C74.1568 104.293 74.1065 104.242 74.0562 104.142C74.0059 104.041 73.9556 103.941 73.9556 103.84C73.9053 103.739 73.9053 103.639 73.9053 103.538C73.9053 103.488 73.9053 103.387 73.9053 103.287ZM75.6661 103.287V101.978C75.6661 101.928 75.6661 101.878 75.6661 101.828C75.6661 101.777 75.6661 101.677 75.6661 101.626C75.6661 101.576 75.6158 101.475 75.6158 101.425C75.6158 101.375 75.5655 101.324 75.5152 101.274C75.4649 101.224 75.4146 101.174 75.3643 101.174C75.314 101.123 75.2133 101.123 75.1127 101.123C74.9618 101.123 74.8612 101.174 74.7606 101.224C74.6599 101.274 74.6096 101.375 74.5593 101.475C74.509 101.576 74.509 101.677 74.509 101.777C74.509 101.878 74.509 101.978 74.509 102.029V103.337C74.509 103.387 74.509 103.437 74.509 103.488C74.509 103.538 74.509 103.639 74.509 103.689C74.509 103.739 74.5593 103.84 74.5593 103.89C74.5593 103.941 74.6096 103.991 74.6599 104.041C74.7102 104.092 74.7605 104.142 74.8109 104.142C74.8612 104.142 74.9618 104.192 75.0624 104.192C75.163 104.192 75.2636 104.192 75.314 104.142C75.3643 104.092 75.4146 104.092 75.4649 104.041C75.5152 103.991 75.5655 103.941 75.5655 103.89C75.5655 103.84 75.6158 103.739 75.6158 103.689C75.6158 103.639 75.6158 103.538 75.6158 103.488C75.6661 103.437 75.6661 103.337 75.6661 103.287Z" fill="white"/>
<path d="M36.8773 106.406C38.9334 106.406 40.6002 104.739 40.6002 102.683C40.6002 100.627 38.9334 98.96 36.8773 98.96C34.8211 98.96 33.1543 100.627 33.1543 102.683C33.1543 104.739 34.8211 106.406 36.8773 106.406Z" fill="#FF9F2B"/>
<path d="M35.7705 103.387V102.079C35.7705 101.978 35.7705 101.928 35.7705 101.828C35.7705 101.727 35.8208 101.626 35.8208 101.526C35.8711 101.425 35.8711 101.324 35.9214 101.224C35.9718 101.123 36.0221 101.023 36.1227 100.972C36.2233 100.872 36.3239 100.821 36.4245 100.771C36.5252 100.721 36.6761 100.721 36.8773 100.721C37.0786 100.721 37.1792 100.721 37.3301 100.771C37.4307 100.821 37.5817 100.872 37.632 100.972C37.7326 101.073 37.7829 101.123 37.8332 101.224C37.8835 101.324 37.9339 101.425 37.9339 101.526C37.9842 101.626 37.9842 101.727 37.9842 101.828C37.9842 101.928 37.9842 102.029 37.9842 102.079V103.387C37.9842 103.488 37.9842 103.538 37.9842 103.639C37.9842 103.739 37.9339 103.84 37.9339 103.941C37.8835 104.041 37.8835 104.142 37.8332 104.242C37.7829 104.343 37.7326 104.444 37.632 104.494C37.5314 104.595 37.4307 104.645 37.3301 104.695C37.2295 104.746 37.0786 104.746 36.8773 104.746C36.6761 104.746 36.5755 104.746 36.4245 104.695C36.3239 104.645 36.173 104.595 36.1227 104.494C36.0221 104.393 35.9718 104.343 35.9214 104.242C35.8711 104.142 35.8208 104.041 35.8208 103.941C35.7705 103.84 35.7705 103.739 35.7705 103.639C35.8208 103.538 35.7705 103.437 35.7705 103.387ZM37.5817 103.387V102.079C37.5817 102.029 37.5817 101.978 37.5817 101.928C37.5817 101.878 37.5817 101.777 37.5817 101.727C37.5817 101.677 37.5314 101.576 37.5314 101.526C37.5314 101.475 37.4811 101.425 37.4308 101.375C37.3804 101.324 37.3301 101.274 37.2798 101.274C37.2295 101.224 37.1289 101.224 37.0283 101.224C36.8773 101.224 36.7767 101.274 36.6761 101.324C36.5755 101.375 36.5252 101.475 36.4749 101.576C36.4245 101.677 36.4245 101.777 36.4245 101.878C36.4245 101.978 36.4245 102.079 36.4245 102.129V103.437C36.4245 103.488 36.4245 103.538 36.4245 103.588C36.4245 103.639 36.4245 103.739 36.4245 103.79C36.4245 103.84 36.4749 103.941 36.4749 103.991C36.4749 104.041 36.5252 104.091 36.5755 104.142C36.6258 104.192 36.6761 104.242 36.7264 104.242C36.7767 104.242 36.8773 104.293 36.978 104.293C37.0786 104.293 37.1792 104.293 37.2295 104.242C37.2798 104.192 37.3301 104.192 37.3804 104.142C37.4308 104.091 37.4811 104.041 37.4811 103.991C37.4811 103.941 37.5314 103.84 37.5314 103.79C37.5314 103.739 37.5314 103.639 37.5314 103.588C37.5817 103.488 37.5817 103.437 37.5817 103.387Z" fill="white"/>
<g opacity="0.5">
<path opacity="0.5" d="M38.9398 117.223C40.9959 117.223 42.6627 115.556 42.6627 113.5C42.6627 111.444 40.9959 109.777 38.9398 109.777C36.8836 109.777 35.2168 111.444 35.2168 113.5C35.2168 115.556 36.8836 117.223 38.9398 117.223Z" fill="#B3DAF4"/>
<path opacity="0.7" d="M43.5179 117.223C45.574 117.223 47.2408 115.556 47.2408 113.5C47.2408 111.444 45.574 109.777 43.5179 109.777C41.4617 109.777 39.7949 111.444 39.7949 113.5C39.7949 115.556 41.4617 117.223 43.5179 117.223Z" fill="#89BFE9"/>
</g>
<path d="M48.9017 117.223C50.9578 117.223 52.6246 115.556 52.6246 113.5C52.6246 111.444 50.9578 109.777 48.9017 109.777C46.8455 109.777 45.1787 111.444 45.1787 113.5C45.1787 115.556 46.8455 117.223 48.9017 117.223Z" fill="#FF9F2B"/>
<path d="M49.3036 115.413H48.7502V111.941L48.1465 112.344V111.79L48.7502 111.388H49.3036V115.413Z" fill="white"/>
<path d="M67.0638 122.204C69.1199 122.204 70.7867 120.537 70.7867 118.481C70.7867 116.425 69.1199 114.758 67.0638 114.758C65.0076 114.758 63.3408 116.425 63.3408 118.481C63.3408 120.537 65.0076 122.204 67.0638 122.204Z" fill="#89BFE9"/>
<path d="M67.5673 120.644H67.0139V117.173L66.4102 117.575V117.022L67.0139 116.619H67.5673V120.644Z" fill="white"/>
<path d="M238.521 105.198L231.427 94.8848C231.427 94.8848 222.472 101.274 209.743 110.833C203.102 115.814 234.697 115.965 238.269 113.147C241.841 110.38 238.521 105.198 238.521 105.198Z" fill="#9BC9ED"/>
<path d="M238.822 112.745C239.024 112.644 238.521 105.249 238.521 105.249L231.427 94.8848C231.427 94.8848 230.974 95.2369 228.308 97.1487L238.822 112.745Z" fill="#C6E0F5"/>
<path d="M203.254 101.929H208.285V105.954H203.254V101.929Z" fill="#B2B2B2"/>
<path d="M209.19 110.985C209.19 108.972 208.938 106.859 208.737 104.243C204.461 104.595 206.222 104.495 200.939 104.344C198.927 104.696 197.417 106.105 196.311 107.916C201.191 109.224 205.668 110.28 209.19 110.985Z" fill="#505050"/>
<path d="M208.788 104.746V104.293C204.512 104.645 206.272 104.545 200.99 104.394C200.386 104.545 199.782 104.746 199.229 104.997C198.776 105.299 198.323 105.702 197.921 106.054C197.82 106.205 197.669 106.205 197.669 106.305C197.569 106.406 197.418 106.406 197.418 106.557C197.015 107.01 196.663 107.463 196.361 107.966C198.625 108.569 200.738 109.123 202.751 109.626C204.411 107.613 206.474 105.953 208.788 104.746Z" fill="#737373"/>
<path d="M211.303 94.3314V94.4321C211.303 95.2873 211.303 96.1929 211.202 97.0482C211.403 97.8531 211.655 98.6078 212.007 99.3121C212.007 99.5637 212.359 100.016 211.051 99.9159L210.347 103.236C210.347 103.236 210.246 103.689 209.19 103.488C208.133 103.287 205.266 102.431 204.008 100.771C204.612 94.2811 205.769 93.2246 205.769 93.2246L211.102 93.3252L211.303 94.3314Z" fill="#B2B2B2"/>
<path d="M209.592 98.3567C209.794 98.3567 209.945 98.2058 209.945 98.0046C209.945 97.753 209.844 97.5518 209.592 97.5518C209.341 97.5518 209.24 97.8033 209.24 98.0046C209.24 98.2058 209.391 98.3567 209.592 98.3567Z" fill="#505050"/>
<path d="M209.09 100.923C209.492 101.325 210.096 101.627 210.649 101.728C210.7 101.476 210.8 101.225 210.8 100.923H209.09Z" fill="#F3F3F3"/>
<path d="M209.19 95.6396C209.19 95.6396 206.574 97.0483 206.725 99.4129C206.624 95.7403 205.316 95.7403 205.316 95.7403L209.19 95.6396Z" fill="#737373"/>
<path d="M212.812 94.3818C212.108 90.5582 208.637 87.3384 204.461 87.3384C199.732 87.2881 195.908 91.1116 195.858 95.8408C195.808 100.57 199.631 104.394 204.36 104.444C204.411 104.444 204.461 104.444 204.511 104.444H205.014C206.926 103.84 206.826 100.167 206.826 100.167V94.6334L212.812 94.3818Z" fill="#1070C4"/>
<path d="M205.77 94.4825V95.8911L212.914 95.7905L212.26 94.3818L205.77 94.4825Z" fill="#505050"/>
<path d="M204.713 88.2945C204.612 88.1939 204.461 88.1939 204.31 88.1939C200.185 88.1436 196.764 91.5144 196.713 95.6398C196.663 99.7653 200.034 103.186 204.159 103.237C204.21 103.237 204.26 103.237 204.26 103.237C204.411 103.237 204.562 103.186 204.662 103.136C200.587 102.734 197.569 99.1112 197.971 94.9858C198.374 91.4641 201.191 88.6467 204.713 88.2945Z" fill="#459BDD"/>
<path d="M297.987 132.718H43.9206C42.8138 132.668 41.9585 131.813 41.9082 130.706C41.9082 129.599 42.8138 128.693 43.9206 128.693H297.987C299.094 128.693 299.95 129.549 300 130.655V130.706C299.95 131.813 299.094 132.718 297.987 132.718Z" fill="#B2B2B2"/>
<path d="M38.0846 132.718H28.2741C27.1673 132.668 26.312 131.813 26.2617 130.706C26.2617 129.599 27.1673 128.693 28.2741 128.693H38.0846C39.5939 128.693 40.097 129.951 40.097 130.706C40.097 131.813 39.1915 132.718 38.0846 132.718Z" fill="#D2D2D2"/>
<path d="M19.4696 132.718H13.2312C12.1243 132.668 11.2691 131.813 11.2188 130.706C11.2188 129.599 12.1243 128.693 13.2312 128.693H19.5199C21.0292 128.693 21.5324 129.951 21.5324 130.706C21.482 131.813 20.5765 132.718 19.4696 132.718Z" fill="#E6E6E6"/>
<path d="M78.1319 78.1319C82.911 78.1319 86.7852 74.2577 86.7852 69.4786C86.7852 64.6994 82.911 60.8252 78.1319 60.8252C73.3528 60.8252 69.4785 64.6994 69.4785 69.4786C69.4785 74.2577 73.3528 78.1319 78.1319 78.1319Z" fill="#F1F7FC"/>
<path d="M88.1944 78.1319C92.9735 78.1319 96.8477 74.2577 96.8477 69.4786C96.8477 64.6994 92.9735 60.8252 88.1944 60.8252C83.4153 60.8252 79.541 64.6994 79.541 69.4786C79.541 74.2577 83.4153 78.1319 88.1944 78.1319Z" fill="#D4E8F7"/>
<path d="M153.648 45.581C150.83 45.581 148.214 46.2853 145.95 47.5431C143.787 43.1158 139.209 40.0469 133.926 40.0469C126.531 40.0469 120.544 46.0338 120.544 53.4294C120.544 54.0331 120.594 54.5865 120.644 55.1903C120.242 55.0896 119.789 55.0393 119.336 55.0393C116.016 55.0393 113.349 57.7058 113.349 61.0263C113.349 61.1269 113.349 61.2778 113.349 61.3784C112.393 61.0263 111.387 60.825 110.28 60.825C105.501 60.825 101.627 64.6989 101.627 69.4784C101.627 74.2579 105.501 78.1318 110.28 78.1318H153.597C162.603 78.1318 169.898 70.8368 169.898 61.8312C169.948 52.876 162.653 45.581 153.648 45.581Z" fill="#D4E8F7"/>
<path d="M270.971 58.4603C272.833 58.4603 274.342 56.9512 274.342 55.0895C274.342 53.2279 272.833 51.7188 270.971 51.7188C269.11 51.7188 267.601 53.2279 267.601 55.0895C267.601 56.9512 269.11 58.4603 270.971 58.4603Z" fill="#E2F0FA"/>
<path d="M258.393 58.4603C260.255 58.4603 261.764 56.9512 261.764 55.0895C261.764 53.2279 260.255 51.7188 258.393 51.7188C256.532 51.7188 255.022 53.2279 255.022 55.0895C255.022 56.9512 256.532 58.4603 258.393 58.4603Z" fill="#D4E8F7"/>
<path d="M253.363 51.7194C252.91 51.7194 252.457 51.82 252.055 51.9709C252.508 51.0653 252.709 50.0591 252.709 49.0026C252.709 45.179 249.64 42.1101 245.816 42.1101C245.112 42.1101 244.458 42.2107 243.804 42.412C242.496 38.5381 238.823 35.7207 234.446 35.7207C229.616 35.7207 225.541 39.1921 224.686 43.7703C224.334 43.6697 223.931 43.6194 223.529 43.6194C221.818 43.6194 220.309 44.525 219.504 45.8834C218.246 44.7765 216.586 44.0722 214.775 44.0722C210.8 44.0722 207.631 47.2921 207.631 51.2163C207.631 55.1405 210.851 58.3603 214.775 58.3603H253.413C255.275 58.3603 256.784 56.851 256.784 54.9895C256.734 53.2287 255.224 51.7194 253.363 51.7194Z" fill="#E2F0FA"/>
<path d="M35.0153 22.7406C36.877 22.7406 38.3861 21.2314 38.3861 19.3698C38.3861 17.5082 36.877 15.999 35.0153 15.999C33.1537 15.999 31.6445 17.5082 31.6445 19.3698C31.6445 21.2314 33.1537 22.7406 35.0153 22.7406Z" fill="#F1F7FC"/>
<path d="M52.6247 15.9987C53.0775 15.9987 53.5303 16.0993 53.9328 16.2502C53.48 15.3446 53.2787 14.3384 53.2787 13.2819C53.2787 9.45833 56.3477 6.3894 60.1712 6.3894C60.8756 6.3894 61.5296 6.49002 62.1836 6.69126C63.542 2.81737 67.2147 0 71.5917 0C76.4215 0 80.4966 3.47141 81.3519 8.04964C81.704 7.94902 82.1065 7.89871 82.509 7.89871C84.2195 7.89871 85.7288 8.8043 86.5338 10.1627C87.7916 9.05585 89.4518 8.3515 91.263 8.3515C95.2375 8.3515 98.407 11.5714 98.407 15.4956C98.407 19.4198 95.1872 22.6396 91.263 22.6396H52.6247C50.7632 22.6396 49.2539 21.1303 49.2539 19.2688C49.2539 17.508 50.7632 15.9987 52.6247 15.9987Z" fill="#E2F0FA"/>
<path d="M86.7848 23.0423C89.3967 23.0423 91.514 20.925 91.514 18.3131C91.514 15.7013 89.3967 13.584 86.7848 13.584C84.173 13.584 82.0557 15.7013 82.0557 18.3131C82.0557 20.925 84.173 23.0423 86.7848 23.0423Z" fill="#F1F7FC"/>
<path opacity="0.6" d="M98.86 23.0423C101.472 23.0423 103.589 20.925 103.589 18.3131C103.589 15.7013 101.472 13.584 98.86 13.584C96.2482 13.584 94.1309 15.7013 94.1309 18.3131C94.1309 20.925 96.2482 23.0423 98.86 23.0423Z" fill="#C6E0F5"/>
<path d="M47.5934 22.7406C49.4551 22.7406 50.9642 21.2314 50.9642 19.3698C50.9642 17.5082 49.4551 15.999 47.5934 15.999C45.7318 15.999 44.2227 17.5082 44.2227 19.3698C44.2227 21.2314 45.7318 22.7406 47.5934 22.7406Z" fill="#C6E0F5"/>
<path opacity="0.6" d="M171.507 70.6361C174.119 70.6361 176.237 68.5187 176.237 65.9069C176.237 63.2951 174.119 61.1777 171.507 61.1777C168.896 61.1777 166.778 63.2951 166.778 65.9069C166.778 68.5187 168.896 70.6361 171.507 70.6361Z" fill="#C6E0F5"/>
<path d="M159.936 70.6361C162.548 70.6361 164.665 68.5187 164.665 65.9069C164.665 63.2951 162.548 61.1777 159.936 61.1777C157.324 61.1777 155.207 63.2951 155.207 65.9069C155.207 68.5187 157.324 70.6361 159.936 70.6361Z" fill="#F1F7FC"/>
<path d="M183.582 70.6361C186.194 70.6361 188.311 68.5187 188.311 65.9069C188.311 63.2951 186.194 61.1777 183.582 61.1777C180.97 61.1777 178.853 63.2951 178.853 65.9069C178.853 68.5187 180.97 70.6361 183.582 70.6361Z" fill="#F1F7FC"/>
<path opacity="0.6" d="M224.183 60.8252C227.35 60.8252 229.918 58.2574 229.918 55.0899C229.918 51.9223 227.35 49.3545 224.183 49.3545C221.015 49.3545 218.447 51.9223 218.447 55.0899C218.447 58.2574 221.015 60.8252 224.183 60.8252Z" fill="#C6E0F5"/>
<path d="M143.032 114.909L120.442 122.003V99.1621L143.032 106.306V114.909Z" fill="#231F20"/>
<path d="M143.032 109.677V106.306L120.442 99.1621V109.677H143.032Z" fill="#666666"/>
<path d="M193.997 91.4141C193.997 91.4141 179.608 92.8227 174.879 102.08C170.15 111.337 193.695 107.916 193.695 107.916L193.997 91.4141Z" fill="#FF9F2B"/>
<path d="M175.181 106.356C178.954 110.079 193.745 107.916 193.745 107.916L193.946 95.0361C185.997 96.0926 179.91 99.0106 175.181 106.356Z" fill="#F27100"/>
<path d="M194.147 110.33C193.191 110.33 192.437 109.576 192.437 108.62V89.6529C192.437 88.697 193.191 87.9424 194.147 87.9424C195.103 87.9424 195.858 88.697 195.858 89.6529V108.62C195.858 109.576 195.053 110.33 194.147 110.33Z" fill="#231F20"/>
<path d="M137.397 90.3577C137.397 89.4521 138.253 88.7981 139.108 89.0999C148.466 92.1689 193.192 106.658 209.19 109.928C227.151 113.551 238.471 105.25 238.471 105.25C238.471 105.25 279.323 118.531 282.543 119.387C285.762 120.242 287.423 127.285 281.889 127.285H140.466C138.806 127.285 137.397 125.927 137.397 124.216V90.3577Z" fill="#459BDD"/>
<path d="M283.146 119.537C282.492 119.386 281.033 118.933 277.964 117.927V127.234H281.938C290.038 127.234 287.422 120.644 283.146 119.537Z" fill="#FF9F2B"/>
<path d="M137.397 123.159V124.165C137.397 125.826 138.756 127.234 140.466 127.234H281.939C286.467 127.234 287.574 125.172 287.02 123.159H137.397Z" fill="#1070C4"/>
<path d="M277.914 123.159V127.234H281.889C286.416 127.234 287.523 125.172 286.97 123.159H277.914Z" fill="#F27100"/>
<path d="M201.09 108.067C220.761 114.054 235.502 115.915 249.74 108.872C243.25 106.759 238.47 105.199 238.47 105.199C238.47 105.199 227.151 113.551 209.19 109.878C206.624 109.375 203.304 108.57 199.53 107.564C200.084 107.765 200.637 107.916 201.09 108.067Z" fill="#1070C4"/>
<path d="M158.477 130.907C168.564 130.907 176.74 122.731 176.74 112.644C176.74 102.558 168.564 94.3818 158.477 94.3818C148.391 94.3818 140.215 102.558 140.215 112.644C140.215 122.731 148.391 130.907 158.477 130.907Z" fill="#393939"/>
<path d="M159.131 122.505C164.855 122.505 169.495 117.865 169.495 112.141C169.495 106.417 164.855 101.777 159.131 101.777C153.408 101.777 148.768 106.417 148.768 112.141C148.768 117.865 153.408 122.505 159.131 122.505Z" fill="#C2BEBC"/>
<path d="M159.132 120.694C163.855 120.694 167.685 116.865 167.685 112.142C167.685 107.418 163.855 103.589 159.132 103.589C154.408 103.589 150.579 107.418 150.579 112.142C150.579 116.865 154.408 120.694 159.132 120.694Z" fill="white"/>
<path d="M159.132 103.589C154.403 103.589 150.579 107.412 150.579 112.142H167.634C167.685 107.412 163.861 103.589 159.132 103.589Z" fill="#939393"/>
<path d="M159.132 115.814C161.16 115.814 162.804 114.17 162.804 112.141C162.804 110.113 161.16 108.469 159.132 108.469C157.103 108.469 155.459 110.113 155.459 112.141C155.459 114.17 157.103 115.814 159.132 115.814Z" fill="#C2BEBC"/>
<path d="M257.086 131.108C263.31 131.108 268.355 126.063 268.355 119.839C268.355 113.615 263.31 108.569 257.086 108.569C250.862 108.569 245.816 113.615 245.816 119.839C245.816 126.063 250.862 131.108 257.086 131.108Z" fill="#393939"/>
<path d="M257.539 125.926C261.068 125.926 263.928 123.066 263.928 119.537C263.928 116.008 261.068 113.147 257.539 113.147C254.01 113.147 251.149 116.008 251.149 119.537C251.149 123.066 254.01 125.926 257.539 125.926Z" fill="#C2BEBC"/>
<path d="M257.538 124.82C260.456 124.82 262.821 122.455 262.821 119.537C262.821 116.62 260.456 114.255 257.538 114.255C254.621 114.255 252.256 116.62 252.256 119.537C252.256 122.455 254.621 124.82 257.538 124.82Z" fill="white"/>
<path d="M257.538 114.255C254.62 114.255 252.256 116.619 252.256 119.537H262.771C262.771 116.619 260.406 114.255 257.538 114.255Z" fill="#939393"/>
<path d="M257.539 121.801C258.79 121.801 259.803 120.788 259.803 119.537C259.803 118.287 258.79 117.273 257.539 117.273C256.289 117.273 255.275 118.287 255.275 119.537C255.275 120.788 256.289 121.801 257.539 121.801Z" fill="#C2BEBC"/>
<path d="M189.267 120.745C192.879 120.745 195.807 117.817 195.807 114.204C195.807 110.592 192.879 107.664 189.267 107.664C185.655 107.664 182.727 110.592 182.727 114.204C182.727 117.817 185.655 120.745 189.267 120.745Z" fill="#9BC9ED"/>
<path opacity="0.6" d="M77.7298 119.487C79.7859 119.487 81.4527 117.82 81.4527 115.764C81.4527 113.708 79.7859 112.041 77.7298 112.041C75.6737 112.041 74.0068 113.708 74.0068 115.764C74.0068 117.82 75.6737 119.487 77.7298 119.487Z" fill="#B7D9F2"/>
<path d="M83.9173 119.487C85.9734 119.487 87.6403 117.82 87.6403 115.764C87.6403 113.708 85.9734 112.041 83.9173 112.041C81.8612 112.041 80.1943 113.708 80.1943 115.764C80.1943 117.82 81.8612 119.487 83.9173 119.487Z" fill="#A9D1EF"/>
<path d="M86.9359 119.487C88.992 119.487 90.6588 117.82 90.6588 115.764C90.6588 113.708 88.992 112.041 86.9359 112.041C84.8797 112.041 83.2129 113.708 83.2129 115.764C83.2129 117.82 84.8797 119.487 86.9359 119.487Z" fill="#FF9F2B"/>
<path d="M85.8799 116.267V114.959C85.8799 114.858 85.8799 114.808 85.8799 114.707C85.8799 114.607 85.9302 114.506 85.9302 114.406C85.9805 114.305 85.9805 114.204 86.0308 114.104C86.0811 114.003 86.1314 113.902 86.2321 113.852C86.3327 113.752 86.4333 113.701 86.5339 113.651C86.6345 113.601 86.7855 113.601 86.9867 113.601C87.1879 113.601 87.2886 113.601 87.4395 113.651C87.5401 113.701 87.6911 113.752 87.7414 113.852C87.842 113.953 87.8923 114.003 87.9426 114.104C87.9929 114.204 88.0432 114.305 88.0432 114.406C88.0935 114.506 88.0935 114.607 88.0935 114.707C88.0935 114.808 88.0935 114.909 88.0935 114.959V116.267C88.0935 116.368 88.0935 116.418 88.0935 116.519C88.0935 116.619 88.0432 116.72 88.0432 116.82C87.9929 116.921 87.9929 117.022 87.9426 117.122C87.8923 117.223 87.842 117.324 87.7414 117.374C87.6407 117.474 87.5401 117.525 87.4395 117.575C87.3389 117.625 87.1879 117.625 86.9867 117.625C86.7855 117.625 86.6848 117.625 86.5339 117.575C86.383 117.525 86.2824 117.474 86.2321 117.374C86.1314 117.273 86.0811 117.223 86.0308 117.122C85.9805 117.022 85.9302 116.921 85.9302 116.82C85.8799 116.72 85.8799 116.619 85.8799 116.519C85.8799 116.468 85.8799 116.368 85.8799 116.267ZM87.6407 116.267V114.959C87.6407 114.909 87.6407 114.858 87.6407 114.808C87.6407 114.758 87.6407 114.657 87.6407 114.607C87.6407 114.556 87.5904 114.456 87.5904 114.406C87.5904 114.355 87.5401 114.305 87.4898 114.255C87.4395 114.204 87.3892 114.154 87.3389 114.154C87.2886 114.104 87.188 114.104 87.0873 114.104C86.9364 114.104 86.8358 114.154 86.7352 114.204C86.6345 114.255 86.5842 114.355 86.5339 114.456C86.4836 114.556 86.4836 114.657 86.4836 114.758C86.4836 114.858 86.4836 114.959 86.4836 115.009V116.317C86.4836 116.368 86.4836 116.418 86.4836 116.468C86.4836 116.519 86.4836 116.619 86.4836 116.67C86.4836 116.72 86.5339 116.82 86.5339 116.871C86.5339 116.921 86.5842 116.971 86.6345 117.022C86.6848 117.072 86.7352 117.122 86.7855 117.122C86.8358 117.122 86.9364 117.173 87.037 117.173C87.1376 117.173 87.2383 117.173 87.2886 117.122C87.3389 117.072 87.3892 117.072 87.4395 117.022C87.4898 116.971 87.5401 116.921 87.5401 116.871C87.5401 116.82 87.5904 116.72 87.5904 116.67C87.5904 116.619 87.5904 116.519 87.5904 116.468C87.6407 116.418 87.6407 116.317 87.6407 116.267Z" fill="white"/>
<path opacity="0.7" d="M17.5583 118.33C17.5583 116.368 15.9987 114.758 14.0869 114.657C14.0869 114.657 14.0366 114.657 13.9359 114.657H13.8856H13.8353C12.1751 114.657 3.72296 114.657 3.72296 114.657C1.66024 114.657 0 116.317 0 118.38C0 120.443 1.66024 122.103 3.72296 122.103C3.72296 122.103 12.1751 122.103 13.8353 122.103H13.8856H13.9359C14.0366 122.103 14.0869 122.103 14.0869 122.103C16.049 121.902 17.5583 120.292 17.5583 118.33Z" fill="#E2F0FA"/>
<path opacity="0.7" d="M21.6839 106.658C23.74 106.658 25.4069 104.991 25.4069 102.935C25.4069 100.879 23.74 99.2119 21.6839 99.2119C19.6278 99.2119 17.9609 100.879 17.9609 102.935C17.9609 104.991 19.6278 106.658 21.6839 106.658Z" fill="#E2F0FA"/>
</svg>
