<svg width="300" height="200" viewBox="0 0 300 200" fill="none" xmlns="http://www.w3.org/2000/svg">
<path d="M135.697 87.1038V81.0035H141.801V87.1073L135.697 87.1038ZM125.435 87.1003V81H131.539V87.1038L125.435 87.1003Z" fill="#FF9F2B"/>
<path d="M115 81V87.1003L121.104 87.1038V81H115Z" fill="#FF9F2B"/>
<path d="M146 81.0008V87.101L152.104 87.1046V81.0008H146Z" fill="#FF9F2B"/>
<path d="M157 87.1075V81.001H170.093V87.111L157 87.1075Z" fill="#FF9F2B"/>
<path fill-rule="evenodd" clip-rule="evenodd" d="M162.781 97.6348L182.511 84.3185L162.781 71.0022L162.781 97.6348Z" fill="#FF9F2B"/>
<path d="M15.5511 21C15.1397 21 14.7452 21.1634 14.4543 21.4543C14.1634 21.7452 14 22.1397 14 22.5511V22.5511V104.806C14 105.217 14.1634 105.612 14.4543 105.903C14.7452 106.194 15.1397 106.357 15.5511 106.357H79.9146C80.3253 106.357 80.7193 106.195 81.0101 105.905C81.3009 105.615 81.4648 105.221 81.4657 104.811L81.6363 22.3828C81.6363 22.0173 81.4915 21.6666 81.2337 21.4075C80.9758 21.1483 80.6259 21.0018 80.2603 21H15.5511Z" fill="#939393"/>
<path d="M71.2227 35.8037H24.4141V39.9337H71.2227V35.8037Z" fill="white"/>
<path d="M71.2227 49.5254H24.4141V53.6554H71.2227V49.5254Z" fill="white"/>
<path d="M71.2227 63.2441H24.4141V67.3742H71.2227V63.2441Z" fill="white"/>
<path d="M71.2227 76.9668H24.4141V81.0968H71.2227V76.9668Z" fill="white"/>
<path d="M71.2227 90.6865H24.4141V94.8166H71.2227V90.6865Z" fill="white"/>
<path d="M44.1694 57.9638C43.7577 57.9638 43.3629 58.1273 43.0718 58.4184C42.7807 58.7095 42.6172 59.1043 42.6172 59.516V141.766C42.6172 142.178 42.7807 142.573 43.0718 142.864C43.3629 143.155 43.7577 143.319 44.1694 143.319H108.526C108.937 143.319 109.331 143.156 109.622 142.866C109.913 142.576 110.077 142.182 110.078 141.771L110.253 59.3408C110.253 58.9753 110.109 58.6246 109.851 58.3655C109.593 58.1063 109.243 57.9598 108.878 57.958L44.1694 57.9638Z" fill="#C2C2C2"/>
<path d="M99.8438 72.7686H53.0352V76.8986H99.8438V72.7686Z" fill="#939393"/>
<path d="M99.8438 86.4902H53.0352V90.6203H99.8438V86.4902Z" fill="#939393"/>
<path d="M99.8438 100.209H53.0352V104.339H99.8438V100.209Z" fill="#939393"/>
<path d="M99.8438 113.932H53.0352V118.062H99.8438V113.932Z" fill="#939393"/>
<path d="M99.8438 127.649H53.0352V131.779H99.8438V127.649Z" fill="#939393"/>
<path d="M70.721 92.9564C70.5172 92.9564 70.3154 92.9966 70.1272 93.0746C69.9389 93.1526 69.7679 93.267 69.6238 93.4111C69.4798 93.5553 69.3655 93.7264 69.2877 93.9147C69.2098 94.103 69.1698 94.3048 69.1699 94.5086V176.763C69.1698 176.966 69.2098 177.168 69.2877 177.356C69.3655 177.545 69.4798 177.716 69.6238 177.86C69.7679 178.004 69.9389 178.119 70.1272 178.197C70.3154 178.275 70.5172 178.315 70.721 178.315H135.078C135.489 178.315 135.883 178.152 136.174 177.862C136.465 177.572 136.629 177.178 136.63 176.767L136.805 94.3369C136.806 94.1557 136.771 93.976 136.702 93.8083C136.634 93.6405 136.532 93.488 136.404 93.3595C136.277 93.231 136.125 93.1291 135.957 93.0595C135.79 92.9899 135.61 92.9541 135.429 92.9541L70.721 92.9564Z" fill="#E6E6E6"/>
<path d="M126.389 107.761H79.5801V111.891H126.389V107.761Z" fill="#939393"/>
<path d="M126.389 121.482H79.5801V125.612H126.389V121.482Z" fill="#939393"/>
<path d="M126.389 135.201H79.5801V139.331H126.389V135.201Z" fill="#939393"/>
<path d="M126.389 148.924H79.5801V153.054H126.389V148.924Z" fill="#939393"/>
<path d="M126.389 162.643H79.5801V166.773H126.389V162.643Z" fill="#939393"/>
<path fill-rule="evenodd" clip-rule="evenodd" d="M210.939 69.7369C211.088 69.7336 211.178 69.5613 211.225 69.3659L211.236 69.3179C211.246 69.2694 211.253 69.2203 211.258 69.1726C211.263 69.1191 211.266 69.0676 211.266 69.0208L211.294 68.5139C211.346 66.7612 212.169 57.9355 223.246 57.4072H223.26H223.288C223.659 57.4072 223.847 57.284 223.847 57.0402C223.847 56.6468 223.685 56.4862 223.288 56.4862L223.227 56.4842C212.196 55.4316 211.386 47.3898 211.337 45.7887C211.322 45.4787 211.307 45.2219 211.298 45.072C211.292 44.9745 211.289 44.9153 211.289 44.9033C211.314 44.6901 211.261 44.4751 211.14 44.297C211.134 44.2907 211.124 44.2812 211.108 44.2707C211.062 44.2406 210.969 44.2018 210.774 44.2022L210.744 44.2025C210.704 44.2034 210.643 44.2049 210.578 44.2273C210.448 44.2724 210.303 44.4018 210.277 44.7812C210.275 44.8191 210.273 44.8595 210.273 44.9025L210.225 45.7513C210.151 48.9838 207.976 54.5989 200.495 56.2144C199.996 56.3221 199.474 56.412 198.927 56.4823L198.891 56.487H198.866C198.45 56.5421 198.295 56.6559 198.236 56.7616C198.215 56.8006 198.206 56.8385 198.203 56.8719C198.202 56.8884 198.201 56.9038 198.201 56.9177L198.201 56.9288C198.201 57.1651 198.201 57.369 198.806 57.4075L199.216 57.4352V57.4394C207.504 58.1427 210.315 65.6897 210.405 68.4396C210.427 68.6516 210.444 68.8244 210.456 68.9596L210.46 68.9952L210.462 69.0208L210.473 69.1428C210.483 69.2521 210.488 69.3141 210.489 69.3313C210.49 69.4181 210.515 69.5028 210.561 69.5766C210.607 69.6504 210.672 69.7104 210.75 69.7502C210.812 69.7363 210.876 69.7318 210.939 69.7369ZM248.278 125.561C266.478 125.561 281.233 110.868 281.233 92.7433C281.233 90.2041 280.944 87.7322 280.395 85.3587C273.912 91.9293 265.185 98.7538 254.982 104.897C245.296 110.729 235.649 115.121 227.068 117.862C232.8 122.666 240.199 125.561 248.278 125.561ZM251.786 99.9571C262.938 93.2169 272.241 85.9176 278.428 79.4729C273.31 67.959 261.736 59.9258 248.278 59.9258C230.077 59.9258 215.322 74.6187 215.322 92.7433C215.322 100.462 217.998 107.558 222.476 113.162C231.313 110.552 241.922 105.919 251.786 99.9571Z" fill="#459BDC"/>
<path d="M296.159 62.9511C292.195 56.5342 278.83 57.0128 262.349 63.0614C264.636 64.1392 266.791 65.4754 268.77 67.0437C279.453 64.2139 288.389 62.6423 290.564 66.4864C294.298 73.0825 278.812 89.9805 255.333 104.42C234.177 117.43 209.682 124.378 205.447 118.631C202.801 115.043 207.4 107.557 215.989 99.3022C215.548 97.1434 215.325 94.9461 215.325 92.7431C215.325 92.4374 215.33 92.1329 215.338 91.8292C202.415 103.784 195.914 115.493 199.889 121.927C205.736 131.391 232.026 125.861 258.61 109.575C285.195 93.2897 302.006 72.4152 296.159 62.9511Z" fill="#1170C4"/>
<path d="M282.696 134.898L282.734 134.89L282.783 134.891C282.818 134.892 282.853 134.885 282.886 134.871C282.918 134.858 282.948 134.837 282.972 134.812C282.997 134.786 283.015 134.756 283.028 134.723C283.04 134.69 283.045 134.655 283.042 134.619L283.06 134.159C283.104 132.633 283.748 127.62 290.171 127.305C290.214 127.307 290.257 127.3 290.297 127.285C290.337 127.27 290.374 127.247 290.404 127.217C290.435 127.188 290.46 127.152 290.477 127.113C290.494 127.074 290.502 127.031 290.502 126.989C290.504 126.907 290.473 126.827 290.416 126.768C290.36 126.709 290.282 126.675 290.199 126.672L290.158 126.671C283.73 126.039 283.088 121.297 283.044 119.859C283.049 119.667 283.044 119.54 283.044 119.475C283.044 119.433 283.044 119.407 283.044 119.399C283.051 119.354 283.047 119.308 283.033 119.264C283.02 119.221 282.996 119.181 282.965 119.147C282.861 119.051 282.725 118.999 282.583 119C282.484 119.02 282.394 119.069 282.325 119.142C282.256 119.214 282.21 119.306 282.195 119.405V119.798C282.164 121.22 281.576 125.894 275.355 126.601L275.332 126.604H275.298C275.217 126.609 275.141 126.645 275.085 126.704C275.03 126.764 274.999 126.842 275 126.923C275.001 127.004 275.033 127.082 275.09 127.14C275.146 127.199 275.223 127.233 275.305 127.236H275.344C280.416 127.522 282.247 132.042 282.303 134.059C282.301 134.232 282.307 134.404 282.323 134.576L282.325 134.606C282.33 134.652 282.344 134.696 282.367 134.736C282.39 134.776 282.421 134.81 282.458 134.838C282.49 134.865 282.529 134.884 282.57 134.894C282.611 134.905 282.654 134.906 282.696 134.898Z" fill="#1170C4"/>
<path fill-rule="evenodd" clip-rule="evenodd" d="M211.024 69.1638C210.977 69.3591 210.887 69.5315 210.738 69.5347C210.674 69.5297 210.611 69.5342 210.548 69.548C210.471 69.5083 210.405 69.4483 210.36 69.3745C210.314 69.3007 210.289 69.2159 210.288 69.1292C210.287 69.1119 210.282 69.05 210.272 68.9407C210.269 68.9051 210.265 68.8644 210.261 68.8187L210.259 68.7931C210.258 68.7815 210.256 68.7696 210.255 68.7574C210.243 68.6222 210.226 68.4495 210.204 68.2375C210.114 65.4876 207.303 57.9406 199.015 57.2372V57.2331L198.605 57.2054C198 57.1669 198 56.963 198 56.7267C198 56.7231 198 56.7194 198 56.7155C198 56.7016 198 56.6862 198.002 56.6698C198.005 56.6363 198.014 56.5985 198.035 56.5595C198.093 56.4537 198.249 56.3399 198.665 56.2848H198.69L198.726 56.2801C199.273 56.2099 199.795 56.12 200.294 56.0123C207.775 54.3967 209.95 48.7816 210.024 45.5491L210.072 44.7004C210.072 44.6573 210.074 44.6169 210.076 44.579C210.102 44.1997 210.247 44.0702 210.377 44.0252C210.442 44.0027 210.503 44.0013 210.543 44.0003C210.553 44.0001 210.563 44 210.573 44C210.768 43.9996 210.861 44.0385 210.907 44.0686C210.922 44.0791 210.932 44.0885 210.939 44.0948C211.06 44.273 211.112 44.4879 211.088 44.7012C211.088 44.7131 211.091 44.7724 211.097 44.8699C211.106 45.0198 211.121 45.2766 211.136 45.5865C211.185 47.1877 211.995 55.2294 223.026 56.2821L223.087 56.284C223.484 56.284 223.645 56.4447 223.645 56.838C223.645 57.0818 223.458 57.2051 223.087 57.2051H223.059H223.045C211.968 57.7334 211.145 66.559 211.093 68.3117L211.065 68.8187C211.065 68.8654 211.062 68.917 211.057 68.9704C211.052 69.0181 211.044 69.0673 211.035 69.1157" fill="#459BDC"/>
</svg>
