<svg width="300" height="200" viewBox="0 0 300 200" fill="none" xmlns="http://www.w3.org/2000/svg">
<g clip-path="url(#clip0)">
<path d="M249.5 23.8311H50V180.462H249.5V23.8311Z" fill="#E6E6E6"/>
<path d="M249.999 20H50.5V37.7699H249.999V20Z" fill="#939393"/>
<path d="M237 52H167V85H237V52Z" fill="#459BDC"/>
<path d="M237 94H167V127H237V94Z" fill="#459BDC"/>
<path d="M237 135H167V168H237V135Z" fill="#459BDC"/>
<g opacity="0.7">
<path fill-rule="evenodd" clip-rule="evenodd" d="M138.5 64H142.121V67H141.5V67.9006H138.5V64ZM147.212 64H151.455V67H147.212V64ZM156.545 64H160.788V67H156.545V64ZM138.5 78.4631V73.6619H141.5V78.4631H138.5ZM138.5 89.0256V84.2244H141.5V89.0256H138.5ZM138.5 99.5881V94.7869H141.5V99.5881H138.5ZM138.5 110.151V105.349H141.5V110.151H138.5ZM138.5 120.713V115.912H141.5V120.713H138.5ZM138.5 131.276V126.474H141.5V131.276H138.5ZM138.5 141.838V137.037H141.5V141.838H138.5ZM138.5 147.599H141.5V148.5H142.121V151.5H138.5V147.599ZM151.455 151.5H147.212V148.5H151.455V151.5ZM160.788 151.5H156.545V148.5H160.788V151.5Z" fill="#939393"/>
<path d="M141 108L99 108" stroke="#939393" stroke-width="3" stroke-dasharray="4 5"/>
</g>
</g>
<path d="M85.76 91H37V127H85.76L103 109L85.76 91ZM93.3993 111.459C92.9186 111.459 92.4487 111.314 92.0491 111.042C91.6494 110.77 91.3379 110.383 91.154 109.931C90.97 109.478 90.9219 108.981 91.0157 108.501C91.1094 108.02 91.3409 107.579 91.6808 107.233C92.0207 106.887 92.4537 106.651 92.9252 106.556C93.3966 106.46 93.8853 106.509 94.3293 106.697C94.7734 106.884 95.153 107.201 95.4201 107.608C95.6871 108.015 95.8296 108.494 95.8296 108.983C95.8296 109.64 95.5736 110.27 95.1178 110.734C94.662 111.198 94.0439 111.459 93.3993 111.459Z" fill="#FF9F2B"/>
<path d="M77.0958 137.122C76.711 137.122 76.3319 137.029 75.9905 136.851C75.649 136.674 75.3554 136.417 75.1342 136.102L70.3004 129.241L65.6779 132.477C65.35 132.707 64.9693 132.851 64.5711 132.896C64.1728 132.941 63.7696 132.885 63.3987 132.733C63.0278 132.581 62.701 132.338 62.4484 132.027C62.1958 131.716 62.0255 131.346 61.9531 130.952L58.0413 109.833C57.9764 109.489 57.9881 109.135 58.0757 108.796C58.1633 108.458 58.3245 108.142 58.5479 107.873C58.909 107.432 59.4165 107.135 59.9782 107.036C60.5399 106.937 61.1183 107.044 61.6082 107.335L80.1213 118.239C80.4666 118.442 80.7554 118.729 80.961 119.073C81.1667 119.417 81.2827 119.807 81.2984 120.207C81.3142 120.607 81.2291 121.005 81.051 121.364C80.8729 121.723 80.6075 122.031 80.2792 122.261L75.7038 125.467L80.5386 132.328C80.9018 132.848 81.0438 133.491 80.9335 134.116C80.8232 134.741 80.4696 135.296 79.9502 135.66L78.468 136.699C78.0651 136.978 77.5858 137.125 77.0958 137.122Z" fill="#939393"/>
<path d="M70.7066 126.94L76.4917 135.156C76.5598 135.253 76.6503 135.333 76.7555 135.387C76.8607 135.442 76.9775 135.47 77.096 135.47C77.2468 135.471 77.394 135.424 77.5171 135.337L79.0003 134.303C79.0805 134.247 79.149 134.176 79.2016 134.094C79.2542 134.012 79.29 133.92 79.3069 133.824C79.3238 133.728 79.3214 133.629 79.2999 133.534C79.2784 133.439 79.2382 133.349 79.1817 133.269L73.3975 125.053L79.3264 120.901C79.4273 120.83 79.5088 120.735 79.5635 120.625C79.6182 120.514 79.6443 120.392 79.6394 120.269C79.6346 120.146 79.5989 120.026 79.5357 119.92C79.4724 119.814 79.3837 119.726 79.2775 119.663L60.7691 108.76C60.6157 108.672 60.4357 108.641 60.2616 108.674C60.0876 108.706 59.9309 108.8 59.8198 108.938C59.7509 109.02 59.7016 109.116 59.6755 109.22C59.6494 109.324 59.6474 109.432 59.6694 109.537L63.5794 130.656C63.6114 130.826 63.7018 130.98 63.835 131.09C63.9682 131.2 64.1358 131.261 64.3088 131.261C64.4588 131.26 64.605 131.213 64.727 131.126L70.7066 126.94Z" fill="white"/>
<defs>
<clipPath id="clip0">
<rect width="200" height="160.462" fill="white" transform="translate(50 20)"/>
</clipPath>
</defs>
</svg>
