<svg width="300" height="200" viewBox="0 0 300 200" fill="none" xmlns="http://www.w3.org/2000/svg">
<path d="M76 81H67V172H76V81Z" fill="#FF9F2B"/>
<path d="M72 121C100.167 121 123 98.1665 123 70C123 41.8335 100.167 19 72 19C43.8335 19 21 41.8335 21 70C21 98.1665 43.8335 121 72 121Z" fill="#459BDD"/>
<path d="M111 71.9996L74.8366 107L65.8836 98.1331L85.9449 78.2696H35V65.7296H85.9449L65.8836 45.8661L74.8366 37L111 71.9996Z" fill="white"/>
<path d="M66.3477 171.46V162.229H225.224C225.351 162.229 225.477 162.229 225.603 162.224C229.353 162.119 232.907 160.529 235.485 157.804C238.063 155.078 239.452 151.441 239.348 147.691C239.187 143.978 237.592 140.473 234.898 137.914C232.204 135.354 228.622 133.941 224.906 133.971H164.156C159.822 133.911 155.542 132.998 151.561 131.285C147.58 129.571 143.975 127.09 140.953 123.983C137.931 120.876 135.55 117.205 133.947 113.178C132.343 109.151 131.549 104.848 131.609 100.514C131.876 82.4137 146.99 68.0407 165.091 67.3027H256.782L279.001 72.2347L278.735 77.9657L256.782 94.6917V86.8747H164.701C164.575 86.8747 164.449 86.8747 164.324 86.8807C162.467 86.9327 160.639 87.3498 158.943 88.1083C157.248 88.8668 155.718 89.9518 154.442 91.3015C153.166 92.6511 152.168 94.2388 151.506 95.9741C150.843 97.7093 150.529 99.558 150.581 101.415C150.741 105.127 152.337 108.632 155.031 111.191C157.725 113.75 161.307 115.163 165.023 115.133H225.638C229.971 115.192 234.25 116.104 238.231 117.816C242.212 119.529 245.816 122.009 248.839 125.115C251.861 128.221 254.242 131.891 255.846 135.917C257.45 139.943 258.245 144.245 258.186 148.579V148.589C257.92 166.689 242.806 181.062 224.705 181.062H66.3477V171.462" fill="#939393"/>
<path d="M66.3477 165.628V156.4H225.601C229.351 156.295 232.905 154.705 235.483 151.979C238.061 149.254 239.45 145.616 239.346 141.866C239.185 138.154 237.59 134.649 234.896 132.089C232.202 129.53 228.619 128.117 224.904 128.147H164.154C155.401 128.026 147.055 124.433 140.951 118.159C134.847 111.884 131.486 103.442 131.607 94.689C131.874 76.589 146.988 62.216 165.089 62.216H256.78V55.416L278.733 72.142L256.782 88.86V81.043H164.324C162.467 81.0951 160.638 81.5124 158.943 82.271C157.247 83.0297 155.718 84.1149 154.442 85.4647C153.165 86.8145 152.168 88.4025 151.505 90.1379C150.843 91.8733 150.529 93.7222 150.581 95.579C150.74 99.2913 152.335 102.797 155.029 105.356C157.722 107.916 161.304 109.33 165.02 109.3H225.635C229.969 109.36 234.248 110.272 238.229 111.986C242.211 113.699 245.815 116.18 248.838 119.287C251.86 122.394 254.241 126.065 255.844 130.092C257.448 134.119 258.242 138.422 258.183 142.756C257.917 160.856 242.803 175.229 224.702 175.229H66.3477V165.622" fill="#D2D2D2"/>
<path d="M224.375 167.553H215.359V165.553H224.375V167.553ZM199.331 167.553H190.315V165.553H199.331V167.553ZM174.287 167.553H165.271V165.553H174.287V167.553ZM149.243 167.553H140.227V165.553H149.243V167.553ZM124.199 167.553H115.183V165.553H124.2L124.199 167.553ZM99.1546 167.553H90.1386V165.553H99.1546V167.553ZM74.1106 167.553H66.8496V165.553H74.1106V167.553ZM239.873 162.278L238.635 160.708C240.903 158.92 242.806 156.714 244.242 154.208L245.977 155.208C244.413 157.934 242.341 160.334 239.873 162.278ZM246.944 139.405C246.492 136.556 245.493 133.821 244 131.352L245.713 130.318C247.338 133.008 248.426 135.987 248.918 139.091L246.944 139.405ZM232.386 121.776C229.911 120.877 227.298 120.418 224.666 120.421H223.876V118.421H224.666C227.53 118.418 230.373 118.918 233.066 119.897L232.386 121.776ZM207.849 120.422H198.832V118.422H207.849V120.422ZM182.805 120.422H173.788V118.422H182.805V120.422ZM157.572 119.443C154.555 118.565 151.737 117.113 149.272 115.166L150.509 113.594C152.774 115.382 155.363 116.717 158.134 117.523L157.572 119.443ZM140.502 101.323C139.808 98.2604 139.704 95.0937 140.195 91.992L142.17 92.305C141.719 95.1554 141.815 98.0654 142.452 100.88L140.502 101.323ZM149.362 79.083L148.023 77.6C150.355 75.4935 153.071 73.8563 156.023 72.778L156.709 74.657C153.998 75.6464 151.503 77.1492 149.362 79.083ZM256.375 73.29H247.359V71.29H256.375V73.29ZM231.331 73.29H222.315V71.29H231.331V73.29ZM206.287 73.29H197.271V71.29H206.287V73.29ZM181.243 73.29H172.227V71.29H181.243V73.29Z" fill="white"/>
</svg>
