<svg width="300" height="200" viewBox="0 0 300 200" fill="none" xmlns="http://www.w3.org/2000/svg">
<g clip-path="url(#clip0)">
<path d="M256.301 11.166H83.9258V146.5H256.301V11.166Z" fill="#E6E6E6"/>
<path d="M246.013 36.1494H170.613V70.1914H246.013V36.1494Z" fill="#459BDC"/>
<path d="M246.013 96.4004H170.613V130.443H246.013V96.4004Z" fill="#C2C2C2"/>
<path d="M256.301 8H83.9258V23.354H256.301V8Z" fill="#939393"/>
<path d="M124.5 48L99 92H150L124.5 48Z" fill="#FF9F2B"/>
<path d="M124.523 86.9971C123.591 87.0297 122.683 86.7191 121.994 86.1325C121.678 85.8697 121.425 85.5466 121.254 85.1849C121.082 84.8232 120.996 84.4314 121.001 84.0359C120.989 83.6371 121.073 83.2409 121.247 82.8763C121.42 82.5118 121.679 82.1881 122.004 81.9292C122.703 81.3703 123.6 81.0757 124.519 81.1033C125.437 81.0696 126.334 81.3665 127.024 81.9325C127.34 82.1947 127.591 82.5182 127.759 82.8803C127.928 83.2424 128.01 83.6345 127.999 84.0292C128.011 84.4276 127.931 84.8238 127.765 85.191C127.598 85.5581 127.349 85.8875 127.034 86.157C126.346 86.7316 125.445 87.033 124.523 86.9971ZM127.659 61L126.916 78.6283H122.019L121.311 61H127.659Z" fill="white"/>
<path d="M66.4824 108.673L60.1504 100.6C59.8261 100.125 59.61 99.5847 59.5174 99.0171L58.7264 89.2821C58.6465 88.6372 58.8161 87.9861 59.2004 87.4621L63.7124 80.6551L64.3454 80.9721C65.2521 81.4319 65.9764 82.1851 66.4004 83.1091L68.6164 73.6091C68.7134 73.2538 68.8457 72.9091 69.0114 72.5801L74.4004 63.1641L75.6674 63.8761C76.6308 64.413 77.362 65.287 77.7204 66.3301C78.1021 67.3738 78.1302 68.5139 77.8004 69.5751L75.2674 76.5401L74.1594 86.1161L76.1374 93.1601L75.6634 83.9001C75.6529 83.3046 75.7603 82.7129 75.9794 82.1591L81.9154 68.0711C82.0791 67.5295 82.379 67.0389 82.7864 66.6461L92.6004 56.1201L94.1834 57.7001C94.9851 58.4895 95.5111 59.5162 95.6834 60.6281C95.8361 61.7247 95.613 62.8406 95.0504 63.7941L90.1434 70.8381L86.1104 83.8211L86.6644 88.0951L91.1004 79.1511C91.3623 78.6005 91.7736 78.1345 92.2874 77.8061C92.8079 77.4694 93.409 77.2781 94.0284 77.2521L108.66 75.6811L103.383 84.8301L98.3004 86.9871L94.5004 95.6141L97.7454 108.435C98.0348 109.53 98.5453 110.553 99.2454 111.443C99.9486 112.319 100.843 113.023 101.86 113.5C102.873 113.994 103.979 114.264 105.105 114.292C106.245 114.313 107.377 114.097 108.429 113.659L110.329 112.867L117.452 102.816L116.819 97.7511C116.819 97.5131 116.74 97.1971 116.74 96.9591C119.745 99.1014 123.053 100.782 126.554 101.945L127.266 105.745L119.747 126.006L90.6214 162.333L68.4604 149.591L66.4824 108.673Z" fill="#C2C2C2"/>
<path d="M68.4602 98.7004L65.5312 88.6484L64.7402 90.4694L67.0402 97.3544L68.4602 98.7004Z" fill="#A5A5A5"/>
<path d="M83.2606 149.512C85.2977 145.424 88.419 141.974 92.2836 139.539L109.301 129.013C110.492 128.128 111.444 126.959 112.071 125.613L117.69 114.137C119.352 109.467 117.532 102.898 117.532 102.898L116.901 97.8303C116.855 97.5686 116.828 97.3039 116.822 97.0383C116.743 91.9733 121.412 87.6993 124.895 88.8073L127.348 105.744L119.829 126.006L90.7796 162.333L80.0156 156.16L83.2606 149.512Z" fill="#A5A5A5"/>
<path d="M126.077 96.7219C126.077 96.7219 122.677 97.3549 122.277 94.1099C121.723 89.1239 124.968 89.0449 124.968 89.0449L126.077 96.7219Z" fill="#C2C2C2"/>
<path d="M96.082 157.426C87.8758 151.484 77.8605 148.576 67.748 149.2L53 186.929V207.921H89.354L98.139 158.93L96.082 157.426Z" fill="#C2C2C2"/>
<path d="M67.748 149.274L39 208H53H61.495L81.836 150.778C77.2578 149.489 72.4951 148.981 67.748 149.274Z" fill="#D2D2D2"/>
<line x1="142.836" y1="69.0502" x2="185.05" y2="52.1644" stroke="#C2C2C2" stroke-width="3" stroke-linecap="square" stroke-dasharray="4 7"/>
</g>
<defs>
<clipPath id="clip0">
<rect width="222" height="184" fill="white" transform="translate(39 8)"/>
</clipPath>
</defs>
</svg>
