<svg width="300" height="200" viewBox="0 0 300 200" fill="none" xmlns="http://www.w3.org/2000/svg">
<path fill-rule="evenodd" clip-rule="evenodd" d="M189.294 84.6825L169.564 97.9987V87.1101L157.782 87.1069V81.0004H169.564V71.3662L189.294 84.6825ZM127 81.0002V87.1005L133.104 87.104V81.0002H127ZM147.697 87.104V81.0038H153.801V87.1075L147.697 87.104ZM137.435 87.1005V81.0002H143.539V87.104L137.435 87.1005Z" fill="#FF9F2B"/>
<path d="M27.5511 21C27.1397 21 26.7452 21.1634 26.4543 21.4543C26.1634 21.7452 26 22.1397 26 22.5511V22.5511V104.806C26 105.217 26.1634 105.612 26.4543 105.903C26.7452 106.194 27.1397 106.357 27.5511 106.357H91.9146C92.3253 106.357 92.7193 106.195 93.0101 105.905C93.3009 105.615 93.4648 105.221 93.4657 104.811L93.6363 22.3828C93.6363 22.0173 93.4915 21.6666 93.2337 21.4075C92.9758 21.1483 92.6259 21.0018 92.2603 21H27.5511Z" fill="#939393"/>
<path d="M83.2227 35.8037H36.4141V39.9337H83.2227V35.8037Z" fill="white"/>
<path d="M83.2227 49.5254H36.4141V53.6554H83.2227V49.5254Z" fill="white"/>
<path d="M83.2227 63.2441H36.4141V67.3742H83.2227V63.2441Z" fill="white"/>
<path d="M83.2227 76.9668H36.4141V81.0968H83.2227V76.9668Z" fill="white"/>
<path d="M83.2227 90.6865H36.4141V94.8166H83.2227V90.6865Z" fill="white"/>
<path d="M56.1694 57.9638C55.7577 57.9638 55.3629 58.1273 55.0718 58.4184C54.7807 58.7095 54.6172 59.1043 54.6172 59.516V141.766C54.6172 142.178 54.7807 142.573 55.0718 142.864C55.3629 143.155 55.7577 143.319 56.1694 143.319H120.526C120.937 143.319 121.331 143.156 121.622 142.866C121.913 142.576 122.077 142.182 122.078 141.771L122.253 59.3408C122.253 58.9753 122.109 58.6246 121.851 58.3655C121.593 58.1063 121.243 57.9598 120.878 57.958L56.1694 57.9638Z" fill="#C2C2C2"/>
<path d="M111.844 72.7686H65.0352V76.8986H111.844V72.7686Z" fill="#939393"/>
<path d="M111.844 86.4902H65.0352V90.6203H111.844V86.4902Z" fill="#939393"/>
<path d="M111.844 100.209H65.0352V104.339H111.844V100.209Z" fill="#939393"/>
<path d="M111.844 113.932H65.0352V118.062H111.844V113.932Z" fill="#939393"/>
<path d="M111.844 127.649H65.0352V131.779H111.844V127.649Z" fill="#939393"/>
<path d="M82.721 92.9564C82.5172 92.9564 82.3154 92.9966 82.1272 93.0746C81.9389 93.1526 81.7679 93.267 81.6238 93.4111C81.4798 93.5553 81.3655 93.7264 81.2877 93.9147C81.2098 94.103 81.1698 94.3048 81.1699 94.5086V176.763C81.1698 176.966 81.2098 177.168 81.2877 177.356C81.3655 177.545 81.4798 177.716 81.6238 177.86C81.7679 178.004 81.9389 178.119 82.1272 178.197C82.3154 178.275 82.5172 178.315 82.721 178.315H147.078C147.489 178.315 147.883 178.152 148.174 177.862C148.465 177.572 148.629 177.178 148.63 176.767L148.805 94.3369C148.806 94.1557 148.771 93.976 148.702 93.8083C148.634 93.6405 148.532 93.488 148.404 93.3595C148.277 93.231 148.125 93.1291 147.957 93.0595C147.79 92.9899 147.61 92.9541 147.429 92.9541L82.721 92.9564Z" fill="#E6E6E6"/>
<path d="M138.389 107.761H91.5801V111.891H138.389V107.761Z" fill="#939393"/>
<path d="M138.389 121.482H91.5801V125.612H138.389V121.482Z" fill="#939393"/>
<path d="M138.389 135.201H91.5801V139.331H138.389V135.201Z" fill="#939393"/>
<path d="M138.389 148.924H91.5801V153.054H138.389V148.924Z" fill="#939393"/>
<path d="M138.389 162.643H91.5801V166.773H138.389V162.643Z" fill="#939393"/>
<path d="M275 94H193V109.611C193.248 119.746 211.471 128 234 128C256.529 128 274.754 119.827 275 109.611V94Z" fill="#9CC8EC"/>
<path d="M234 113C256.645 113 275 104.269 275 93.5005C275 82.7318 256.643 74 234 74C211.357 74 193 82.7307 193 93.5005C193 104.27 211.359 113 234 113Z" fill="#459BDC"/>
<path d="M275 75H193V91.0694C193.248 101.502 211.471 110 234 110C256.529 110 274.754 101.586 275 91.0694V75Z" fill="#9CC8EC"/>
<path d="M234 95C256.645 95 275 86.4929 275 76C275 65.5071 256.643 57 234 57C211.357 57 193 65.5061 193 76C193 86.4939 211.359 95 234 95Z" fill="#459BDC"/>
<path d="M275 58H193V73.6097C193.248 83.7445 211.471 92 234 92C256.529 92 274.754 83.8265 275 73.6097V58Z" fill="#9CC8EC"/>
<path d="M234 76C256.645 76 275 67.4931 275 56.9995C275 46.5059 256.643 38 234 38C211.357 38 193 46.5069 193 56.9995C193 67.4921 211.359 76 234 76Z" fill="#459BDC"/>
</svg>
