<svg width="300" height="200" viewBox="0 0 300 200" fill="none" xmlns="http://www.w3.org/2000/svg">
<line x1="69.1232" y1="40.7154" x2="123.813" y2="73.0949" stroke="#B2B2B2" stroke-width="2.5"/>
<circle cx="69.744" cy="40.3599" r="8.82723" transform="rotate(-14.3719 69.744 40.3599)" fill="#FF9F2B"/>
<line x1="231.668" y1="42.5269" x2="176.627" y2="74.3049" stroke="#B2B2B2" stroke-width="2.5"/>
<circle cx="231.673" cy="43.2418" r="8.82723" transform="rotate(105 231.673 43.2418)" fill="#FF9F2B"/>
<circle cx="149.384" cy="10.8272" r="8.82723" fill="#FF9F2B"/>
<path d="M149.387 58.4941L149.387 19.2129" stroke="#B2B2B2" stroke-width="2.5"/>
<line x1="230.361" y1="165.285" x2="175.672" y2="132.905" stroke="#B2B2B2" stroke-width="2.5"/>
<circle cx="229.74" cy="165.64" r="8.82723" transform="rotate(165.628 229.74 165.64)" fill="#FF9F2B"/>
<line x1="67.8164" y1="165.473" x2="122.858" y2="133.695" stroke="#B2B2B2" stroke-width="2.5"/>
<circle cx="67.8111" cy="164.758" r="8.82723" transform="rotate(-75 67.8111 164.758)" fill="#FF9F2B"/>
<circle cx="150.1" cy="189.255" r="8.82723" transform="rotate(-180 150.1 189.255)" fill="#FF9F2B"/>
<path d="M150.098 141.588L150.098 180.869" stroke="#B2B2B2" stroke-width="2.5"/>
<path d="M193.939 111.789H107.014V129.202C107.277 140.507 126.594 149.714 150.476 149.714C174.359 149.714 193.677 140.597 193.939 129.202V111.789Z" fill="#459BDC"/>
<path d="M150.476 132.748C174.482 132.748 193.939 123.14 193.939 111.291C193.939 99.4412 174.479 89.833 150.476 89.833C126.473 89.833 107.014 99.4401 107.014 111.291C107.014 123.142 126.475 132.748 150.476 132.748Z" fill="#C5DFF5"/>
<path d="M193.939 91.2656H107.014V108.678C107.277 119.982 126.594 129.19 150.476 129.19C174.359 129.19 193.677 120.074 193.939 108.678V91.2656Z" fill="#459BDC"/>
<path d="M150.476 112.223C174.482 112.223 193.939 102.616 193.939 90.7659C193.939 78.9159 174.479 69.3086 150.476 69.3086C126.473 69.3086 107.014 78.9148 107.014 90.7659C107.014 102.617 126.475 112.223 150.476 112.223Z" fill="#C5DFF5"/>
<path d="M193.939 70.7412H107.014V88.1527C107.277 99.4573 126.594 108.666 150.476 108.666C174.359 108.666 193.677 99.5488 193.939 88.1527V70.7412Z" fill="#459BDC"/>
<path d="M150.476 91.6987C174.482 91.6987 193.939 82.0917 193.939 70.2409C193.939 58.3901 174.479 48.7842 150.476 48.7842C126.473 48.7842 107.014 58.3913 107.014 70.2409C107.014 82.0905 126.475 91.6987 150.476 91.6987Z" fill="#C5DFF5"/>
</svg>
