<svg width="300" height="200" viewBox="0 0 300 200" fill="none" xmlns="http://www.w3.org/2000/svg">
<path d="M241 143.529H152.906V161.177C153.173 172.634 172.75 181.964 196.953 181.964C221.157 181.964 240.735 172.725 241 161.177V143.529Z" fill="#939393"/>
<path d="M196.953 164.77C221.281 164.77 241 155.034 241 143.025C241 131.016 221.279 121.278 196.953 121.278C172.627 121.278 152.906 131.015 152.906 143.025C152.906 155.035 172.629 164.77 196.953 164.77Z" fill="#D2D2D2"/>
<path d="M241 122.729H152.906V140.375C153.173 151.831 172.75 161.163 196.953 161.163C221.157 161.163 240.735 151.924 241 140.375V122.729Z" fill="#939393"/>
<path d="M196.953 143.968C221.281 143.968 241 134.232 241 122.222C241 110.213 221.279 100.477 196.953 100.477C172.627 100.477 152.906 110.212 152.906 122.222C152.906 134.233 172.629 143.968 196.953 143.968Z" fill="#D2D2D2"/>
<path d="M241 101.929H152.906V119.574C153.173 131.031 172.75 140.363 196.953 140.363C221.157 140.363 240.735 131.124 241 119.574V101.929Z" fill="#939393"/>
<path d="M196.953 123.168C221.281 123.168 241 113.432 241 101.422C241 89.4118 221.279 79.6768 196.953 79.6768C172.627 79.6768 152.906 89.413 152.906 101.422C152.906 113.431 172.629 123.168 196.953 123.168Z" fill="#D2D2D2"/>
<path d="M169.797 70.7002H89.2793V101.823C89.2793 101.823 89.2793 101.823 89.2793 101.911C89.2793 101.998 89.2793 101.911 89.2793 101.998V102.173C89.5416 113.101 107.464 121.931 129.495 121.931C151.525 121.931 169.447 113.101 169.71 102.173V70.7002H169.797Z" fill="#459BDC"/>
<path d="M51.6875 55.751V60.3845L126.873 103.048L203.806 60.3845V55.751H51.6875Z" fill="#106EBE"/>
<path d="M203.806 55.7505L126.873 98.5011L51.6875 55.7505L127.747 13L203.806 55.7505Z" fill="#7BC0EF"/>
<path d="M77.4126 126.191C76.4509 126.191 75.6641 125.491 75.6641 124.617V78.8941C75.6641 78.2821 76.1012 77.7576 76.7132 77.4953L123.514 52.202C124.388 51.8523 125.437 52.202 125.874 52.9888C126.311 53.7756 125.874 54.6498 125 54.9995L79.161 79.9432V124.704C79.161 125.491 78.3742 126.191 77.4126 126.191Z" fill="#FF9F2B"/>
<path d="M83.3652 149.417V126.687C83.3652 123.977 80.8299 121.791 77.6826 121.791C74.5353 121.791 72 123.977 72 126.687V139.363C72 139.538 72 149.33 72 149.417H83.3652Z" fill="#FF9F2B"/>
<ellipse cx="127.5" cy="52" rx="5.5" ry="4" fill="#1773C1"/>
</svg>
