<svg width="300" height="200" viewBox="0 0 300 200" fill="none" xmlns="http://www.w3.org/2000/svg">
<g clip-path="url(#clip0)">
<path d="M233.177 65.4152L174.346 189.237H170.562V191.702H175.164C175.395 191.698 175.62 191.625 175.81 191.494C176 191.362 176.147 191.177 176.233 190.963L235.395 66.4868C234.163 65.4963 233.423 64.7571 233.177 65.4152Z" fill="#E6E6E6"/>
<path d="M146.822 187.432L117.242 71.4929C117.2 71.335 117.19 71.1703 117.213 71.0085C117.235 70.8467 117.29 70.691 117.374 70.5507C117.457 70.4103 117.568 70.2881 117.7 70.1911C117.831 70.0942 117.981 70.0246 118.14 69.9863C118.298 69.948 118.463 69.9418 118.625 69.9682C118.786 69.9945 118.94 70.0529 119.078 70.1397C119.217 70.2266 119.336 70.3402 119.43 70.474C119.524 70.6077 119.59 70.7589 119.625 70.9185L149.122 186.442C149.04 186.359 146.822 187.674 146.822 187.432Z" fill="#E6E6E6"/>
<path d="M138.933 197.125L126.938 186.854V178.721L182.152 188.827L181.989 197.126L138.933 197.125Z" fill="#A5A5A5"/>
<path d="M138.933 180.938L126.938 178.719V186.853L138.933 197.123V180.938Z" fill="#939393"/>
<path d="M181.989 188.826H138.933L126.938 178.556H169.992L181.989 188.826Z" fill="#D2D2D2"/>
<path d="M129.485 189.072L66.2189 65.4965C65.9716 64.8397 64 66.487 64 66.487L127.596 190.884C127.709 191.095 127.873 191.274 128.075 191.404C128.276 191.533 128.507 191.609 128.746 191.623H132.443L129.485 189.072Z" fill="#E6E6E6"/>
<path d="M169 160.144V153.847L162.246 152.78C161.863 151.274 161.248 149.834 160.422 148.512L164.496 142.963L159.993 138.482L154.417 142.537C153.114 141.769 151.703 141.194 150.231 140.83L149.159 134H142.84L141.768 140.83C140.305 141.222 138.898 141.796 137.581 142.537L132.007 138.482L127.504 142.963L131.578 148.512C130.753 149.834 130.138 151.274 129.755 152.78L123 153.847V160.144L129.648 161.211C130.03 162.784 130.644 164.294 131.47 165.692L127.614 171.034L132.012 175.515L137.372 171.679C138.769 172.533 140.287 173.179 141.875 173.597L142.948 180H149.272L150.346 173.597C151.934 173.179 153.451 172.533 154.848 171.679L160.208 175.515L164.712 171.034L160.853 165.697C161.679 164.3 162.293 162.79 162.675 161.217L169 160.144ZM145.956 165.479C144.392 165.493 142.859 165.047 141.551 164.199C140.244 163.352 139.221 162.14 138.613 160.717C138.005 159.295 137.839 157.727 138.136 156.211C138.433 154.696 139.179 153.301 140.28 152.205C141.382 151.109 142.788 150.36 144.321 150.054C145.855 149.748 147.446 149.898 148.892 150.486C150.339 151.073 151.576 152.072 152.446 153.354C153.317 154.637 153.782 156.145 153.782 157.689C153.779 159.743 152.956 161.712 151.491 163.171C150.026 164.629 148.037 165.459 145.956 165.479Z" fill="#FF8C00"/>
<path d="M198 124.175V118.831L192.42 117.93C192.103 116.653 191.595 115.432 190.914 114.31L194.28 109.6L190.559 105.8L185.96 109.238C184.884 108.588 183.72 108.1 182.504 107.791L181.614 102H176.387L175.497 107.791C174.29 108.124 173.129 108.61 172.042 109.238L167.442 105.8L163.72 109.6L167.086 114.304C166.405 115.426 165.897 116.647 165.58 117.924L160 118.825V124.175L165.49 125.076C165.806 126.41 166.313 127.69 166.996 128.876L163.807 133.4L167.439 137.2L171.868 133.943C173.022 134.668 174.275 135.216 175.588 135.571L176.478 141H181.705L182.595 135.571C183.908 135.216 185.161 134.668 186.316 133.943L190.743 137.2L194.464 133.4L191.276 128.876C191.953 127.69 192.456 126.41 192.769 125.076L198 124.175ZM178.955 128.694C177.662 128.706 176.394 128.329 175.312 127.61C174.231 126.891 173.384 125.863 172.881 124.656C172.378 123.449 172.24 122.118 172.485 120.831C172.73 119.545 173.346 118.361 174.257 117.43C175.167 116.5 176.331 115.864 177.599 115.604C178.867 115.344 180.182 115.471 181.379 115.969C182.575 116.468 183.598 117.315 184.318 118.404C185.038 119.492 185.423 120.773 185.423 122.083C185.423 123.826 184.743 125.498 183.532 126.736C182.321 127.974 180.676 128.678 178.955 128.694Z" fill="#FF8C00"/>
<path d="M182.318 67.2979C182.156 67.2724 181.99 67.2802 181.83 67.3206C181.671 67.3611 181.521 67.4335 181.391 67.5334C181.26 67.6334 181.151 67.7587 181.07 67.902C180.99 68.0452 180.939 68.2033 180.921 68.3668L160.873 197.206H157.668L161.202 199.753C161.418 199.908 161.675 199.994 161.941 200.001C162.11 200.014 162.279 199.985 162.434 199.918C162.636 199.837 162.812 199.702 162.942 199.528C163.072 199.354 163.152 199.148 163.173 198.932L183.386 68.7844C183.408 68.4512 183.313 68.1208 183.118 67.8496C182.924 67.5784 182.641 67.3834 182.318 67.2979Z" fill="#E6E6E6"/>
<path d="M86.9243 61.8812C101.057 61.8812 113.216 66.565 118.393 73.138C123.569 66.4826 135.73 61.8812 149.862 61.8812C163.995 61.8812 176.401 66.6461 181.496 73.3785C186.589 66.6407 198.75 61.8758 213.13 61.8758C220.85 61.79 228.499 63.3589 235.562 66.4772C230.658 47.4422 219.561 30.5796 204.019 18.5459C188.476 6.51224 169.372 -0.00856848 149.716 0.0107851C130.059 0.0301388 110.968 6.58855 95.4489 18.6528C79.9302 30.7171 68.8662 47.6015 64 66.6461C71.1974 63.3893 79.0253 61.7623 86.9243 61.8812Z" fill="#56A4DF"/>
<path d="M149.781 0.421875C137.948 8.96782 118.804 29.5084 118.311 73.1381C123.488 66.4827 135.648 61.8813 149.781 61.8813C163.913 61.8813 176.073 66.5651 181.25 73.1381C180.758 29.5084 161.612 8.96782 149.781 0.421875Z" fill="#9CC8EC"/>
</g>
<defs>
<clipPath id="clip0">
<rect width="171.561" height="200" fill="white" transform="translate(64)"/>
</clipPath>
</defs>
</svg>
