<svg width="300" height="200" viewBox="0 0 300 200" fill="none" xmlns="http://www.w3.org/2000/svg">
<path d="M168.952 12H34V114.008H168.952V12Z" fill="#C2C2C2"/>
<path d="M168.952 12H34V22.9737H168.952V12Z" fill="#939393"/>
<path d="M267.368 85.2842H132.416V187.292H267.368V85.2842Z" fill="#C5DFF5"/>
<path d="M267.368 85.2842H132.416V96.8304H267.368V85.2842Z" fill="#459BDC"/>
<path d="M57.1465 35.0928L76.275 53.1278L59.6332 72.5941" stroke="white" stroke-width="4" stroke-miterlimit="10"/>
<path d="M70.5352 81.2773H114.148" stroke="white" stroke-width="4" stroke-miterlimit="10"/>
<path d="M163.117 109.046H147.814V121.451H163.117V109.046Z" fill="#9CC8EC"/>
<path d="M252.067 109.046H175.553V121.451H252.067V109.046Z" fill="#9CC8EC"/>
<path d="M163.117 133.856H147.814V146.261H163.117V133.856Z" fill="#9CC8EC"/>
<path d="M252.067 133.856H175.553V146.261H252.067V133.856Z" fill="#9CC8EC"/>
<path d="M163.117 158.668H147.814V171.073H163.117V158.668Z" fill="#9CC8EC"/>
<path d="M252.063 158.668H175.549V171.073H252.063V158.668Z" fill="#9CC8EC"/>
<path d="M252 12H214.646L191.532 74.2224H212.179L189 123L245.598 62.471H220.347L252 12Z" fill="#FF9F2B"/>
</svg>
