<svg width="32" height="32" viewBox="0 0 32 32" fill="none" xmlns="http://www.w3.org/2000/svg">
<path d="M16 0.390625C17.4688 0.390625 18.8854 0.583333 20.25 0.96875C21.6146 1.34375 22.8854 1.88021 24.0625 2.57812C25.25 3.27604 26.3281 4.11458 27.2969 5.09375C28.276 6.0625 29.1146 7.14062 29.8125 8.32812C30.5104 9.50521 31.0469 10.776 31.4219 12.1406C31.8073 13.5052 32 14.9219 32 16.3906C32 18.1094 31.7344 19.7656 31.2031 21.3594C30.6823 22.9531 29.9427 24.4167 28.9844 25.75C28.026 27.0833 26.875 28.2552 25.5312 29.2656C24.1875 30.2656 22.6979 31.0365 21.0625 31.5781C21.0312 31.5885 20.9844 31.599 20.9219 31.6094C20.8594 31.6094 20.8125 31.6094 20.7812 31.6094C20.5312 31.6094 20.3333 31.5365 20.1875 31.3906C20.0417 31.2448 19.9688 31.0521 19.9688 30.8125C19.9688 30.0729 19.9688 29.3438 19.9688 28.625C19.9792 27.8958 19.9844 27.1615 19.9844 26.4219C19.9844 25.8906 19.9062 25.3542 19.75 24.8125C19.5938 24.2708 19.3125 23.8177 18.9062 23.4531C20.1146 23.3177 21.1719 23.0729 22.0781 22.7188C22.9948 22.3542 23.7552 21.8542 24.3594 21.2188C24.974 20.5833 25.4323 19.8021 25.7344 18.875C26.0469 17.9375 26.2031 16.8333 26.2031 15.5625C26.2031 14.75 26.0677 13.9844 25.7969 13.2656C25.526 12.5365 25.1146 11.8698 24.5625 11.2656C24.6771 10.974 24.7604 10.6719 24.8125 10.3594C24.8646 10.0469 24.8906 9.73438 24.8906 9.42188C24.8906 9.01562 24.8438 8.61458 24.75 8.21875C24.6667 7.8125 24.5521 7.41667 24.4062 7.03125C24.3542 7.01042 24.2969 7 24.2344 7C24.1719 7 24.1146 7 24.0625 7C23.7292 7 23.3802 7.05729 23.0156 7.17188C22.651 7.27604 22.2865 7.41146 21.9219 7.57812C21.5677 7.73438 21.224 7.91146 20.8906 8.10938C20.5573 8.30729 20.2604 8.49479 20 8.67188C18.6979 8.30729 17.3646 8.125 16 8.125C14.6354 8.125 13.3021 8.30729 12 8.67188C11.7396 8.49479 11.4427 8.30729 11.1094 8.10938C10.776 7.91146 10.4271 7.73438 10.0625 7.57812C9.70833 7.41146 9.34375 7.27604 8.96875 7.17188C8.60417 7.05729 8.26042 7 7.9375 7C7.88542 7 7.82812 7 7.76562 7C7.70312 7 7.64583 7.01042 7.59375 7.03125C7.44792 7.41667 7.32812 7.8125 7.23438 8.21875C7.15104 8.61458 7.10938 9.01562 7.10938 9.42188C7.10938 9.73438 7.13542 10.0469 7.1875 10.3594C7.23958 10.6719 7.32292 10.974 7.4375 11.2656C6.88542 11.8698 6.47396 12.5365 6.20312 13.2656C5.93229 13.9844 5.79688 14.75 5.79688 15.5625C5.79688 16.8333 5.94792 17.9323 6.25 18.8594C6.5625 19.7865 7.02083 20.5729 7.625 21.2188C8.23958 21.8542 9 22.3542 9.90625 22.7188C10.8125 23.0833 11.8698 23.3333 13.0781 23.4688C12.776 23.7396 12.5417 24.0677 12.375 24.4531C12.2188 24.8281 12.1146 25.2135 12.0625 25.6094C11.7812 25.7448 11.4844 25.849 11.1719 25.9219C10.8594 25.9948 10.5469 26.0312 10.2344 26.0312C9.56771 26.0312 9.01562 25.875 8.57812 25.5625C8.14062 25.25 7.75 24.8229 7.40625 24.2812C7.28125 24.0833 7.13021 23.8854 6.95312 23.6875C6.77604 23.4896 6.58333 23.3125 6.375 23.1562C6.16667 23 5.94271 22.875 5.70312 22.7812C5.46354 22.6771 5.21354 22.625 4.95312 22.625C4.91146 22.625 4.84896 22.6302 4.76562 22.6406C4.68229 22.6406 4.59896 22.651 4.51562 22.6719C4.44271 22.6927 4.375 22.724 4.3125 22.7656C4.25 22.8073 4.21875 22.8594 4.21875 22.9219C4.21875 23.0469 4.29167 23.1719 4.4375 23.2969C4.58333 23.4115 4.70312 23.5 4.79688 23.5625L4.84375 23.5938C5.07292 23.7708 5.27083 23.9427 5.4375 24.1094C5.61458 24.2656 5.77083 24.4375 5.90625 24.625C6.04167 24.8021 6.16146 25 6.26562 25.2188C6.38021 25.4271 6.5 25.6667 6.625 25.9375C6.97917 26.75 7.47396 27.3438 8.10938 27.7188C8.75521 28.0833 9.52083 28.2656 10.4062 28.2656C10.6771 28.2656 10.9479 28.25 11.2188 28.2188C11.4896 28.1771 11.7604 28.1302 12.0312 28.0781V30.7969C12.0312 31.0469 11.9531 31.2448 11.7969 31.3906C11.651 31.5365 11.4531 31.6094 11.2031 31.6094C11.1719 31.6094 11.125 31.6094 11.0625 31.6094C11.0104 31.599 10.9688 31.5885 10.9375 31.5781C9.30208 31.0469 7.8125 30.2812 6.46875 29.2812C5.125 28.2708 3.97396 27.099 3.01562 25.7656C2.05729 24.4219 1.3125 22.9531 0.78125 21.3594C0.260417 19.7656 0 18.1094 0 16.3906C0 14.9219 0.1875 13.5052 0.5625 12.1406C0.947917 10.776 1.48958 9.50521 2.1875 8.32812C2.88542 7.14062 3.71875 6.0625 4.6875 5.09375C5.66667 4.11458 6.74479 3.27604 7.92188 2.57812C9.10938 1.88021 10.3854 1.34375 11.75 0.96875C13.1146 0.583333 14.5312 0.390625 16 0.390625Z" fill="#333333"/>
</svg>
