<svg width="300" height="200" viewBox="0 0 300 200" fill="none" xmlns="http://www.w3.org/2000/svg">
<g clip-path="url(#clip0)">
<path d="M239.55 31.4482H60V172.416H239.55V31.4482Z" fill="#E6E6E6"/>
<path d="M240.001 28H60.4512V43.9929H240.001V28Z" fill="#939393"/>
<path d="M228.301 56.7998H165.301V86.4998H228.301V56.7998Z" fill="#459BDC"/>
<path d="M228.301 94.5996H165.301V124.3H228.301V94.5996Z" fill="#459BDC"/>
<path d="M228.301 131.5H165.301V161.2H228.301V131.5Z" fill="#459BDC"/>
<g opacity="0.7">
<path fill-rule="evenodd" clip-rule="evenodd" d="M139.65 67.5996H142.909V70.2996H142.35V71.1101H139.65V67.5996ZM147.491 67.5996H151.309V70.2996H147.491V67.5996ZM155.891 67.5996H159.709V70.2996H155.891V67.5996ZM139.65 80.6164V76.2953H142.35V80.6164H139.65ZM139.65 90.1226V85.8016H142.35V90.1226H139.65ZM139.65 99.6289V95.3079H142.35V99.6289H139.65ZM139.65 109.135V104.814H142.35V109.135H139.65ZM139.65 118.641V114.32H142.35V118.641H139.65ZM139.65 128.148V123.827H142.35V128.148H139.65ZM139.65 137.654V133.333H142.35V137.654H139.65ZM139.65 142.839H142.35V143.65H142.909V146.35H139.65V142.839ZM151.309 146.35H147.491V143.65H151.309V146.35ZM159.709 146.35H155.891V143.65H159.709V146.35Z" fill="#939393"/>
<path d="M141.9 108.104L113.1 107.294" stroke="#939393" stroke-width="3" stroke-dasharray="4 6"/>
</g>
</g>
<path d="M98.8073 77.7773L70.8008 126.285H126.813L98.8073 77.7773Z" fill="#FF9F2B"/>
<path d="M98.8257 120.816C97.8735 120.85 96.9458 120.509 96.2419 119.867C95.9174 119.579 95.6585 119.225 95.4828 118.828C95.3072 118.431 95.2188 118.001 95.2237 117.567C95.2121 117.13 95.2984 116.696 95.4762 116.297C95.654 115.897 95.919 115.542 96.2516 115.259C96.9661 114.645 97.8845 114.322 98.8257 114.352C99.7652 114.315 100.683 114.641 101.389 115.262C101.713 115.55 101.97 115.905 102.142 116.302C102.315 116.699 102.399 117.129 102.388 117.562C102.4 117.999 102.318 118.433 102.148 118.836C101.978 119.239 101.723 119.6 101.401 119.895C100.695 120.527 99.7712 120.857 98.8257 120.816ZM102.035 92.2988L101.276 111.635H96.2595L95.5349 92.2988H102.035Z" fill="white"/>
<defs>
<clipPath id="clip0">
<rect width="180" height="144.416" fill="white" transform="translate(60 28)"/>
</clipPath>
</defs>
</svg>
