<svg width="300" height="200" viewBox="0 0 300 200" fill="none" xmlns="http://www.w3.org/2000/svg">
<path fill-rule="evenodd" clip-rule="evenodd" d="M181.294 84.6825L161.564 97.9987V87.1101L149.782 87.1069V81.0004H161.564V71.3662L181.294 84.6825ZM119 81.0002V87.1005L125.104 87.104V81.0002H119ZM139.697 87.104V81.0038H145.801V87.1075L139.697 87.104ZM129.435 87.1005V81.0002H135.539V87.104L129.435 87.1005Z" fill="#FF9F2B"/>
<path d="M19.5511 21C19.1397 21 18.7452 21.1634 18.4543 21.4543C18.1634 21.7452 18 22.1397 18 22.5511V22.5511V104.806C18 105.217 18.1634 105.612 18.4543 105.903C18.7452 106.194 19.1397 106.357 19.5511 106.357H83.9146C84.3253 106.357 84.7193 106.195 85.0101 105.905C85.3009 105.615 85.4648 105.221 85.4657 104.811L85.6363 22.3828C85.6363 22.0173 85.4915 21.6666 85.2337 21.4075C84.9758 21.1483 84.6259 21.0018 84.2603 21H19.5511Z" fill="#939393"/>
<path d="M75.2227 35.8037H28.4141V39.9337H75.2227V35.8037Z" fill="white"/>
<path d="M75.2227 49.5254H28.4141V53.6554H75.2227V49.5254Z" fill="white"/>
<path d="M75.2227 63.2441H28.4141V67.3742H75.2227V63.2441Z" fill="white"/>
<path d="M75.2227 76.9668H28.4141V81.0968H75.2227V76.9668Z" fill="white"/>
<path d="M75.2227 90.6865H28.4141V94.8166H75.2227V90.6865Z" fill="white"/>
<path d="M48.1694 57.9638C47.7577 57.9638 47.3629 58.1273 47.0718 58.4184C46.7807 58.7095 46.6172 59.1043 46.6172 59.516V141.766C46.6172 142.178 46.7807 142.573 47.0718 142.864C47.3629 143.155 47.7577 143.319 48.1694 143.319H112.526C112.937 143.319 113.331 143.156 113.622 142.866C113.913 142.576 114.077 142.182 114.078 141.771L114.253 59.3408C114.253 58.9753 114.109 58.6246 113.851 58.3655C113.593 58.1063 113.243 57.9598 112.878 57.958L48.1694 57.9638Z" fill="#C2C2C2"/>
<path d="M103.844 72.7686H57.0352V76.8986H103.844V72.7686Z" fill="#939393"/>
<path d="M103.844 86.4902H57.0352V90.6203H103.844V86.4902Z" fill="#939393"/>
<path d="M103.844 100.209H57.0352V104.339H103.844V100.209Z" fill="#939393"/>
<path d="M103.844 113.932H57.0352V118.062H103.844V113.932Z" fill="#939393"/>
<path d="M103.844 127.649H57.0352V131.779H103.844V127.649Z" fill="#939393"/>
<path d="M74.721 92.9564C74.5172 92.9564 74.3154 92.9966 74.1272 93.0746C73.9389 93.1526 73.7679 93.267 73.6238 93.4111C73.4798 93.5553 73.3655 93.7264 73.2877 93.9147C73.2098 94.103 73.1698 94.3048 73.1699 94.5086V176.763C73.1698 176.966 73.2098 177.168 73.2877 177.356C73.3655 177.545 73.4798 177.716 73.6238 177.86C73.7679 178.004 73.9389 178.119 74.1272 178.197C74.3154 178.275 74.5172 178.315 74.721 178.315H139.078C139.489 178.315 139.883 178.152 140.174 177.862C140.465 177.572 140.629 177.178 140.63 176.767L140.805 94.3369C140.806 94.1557 140.771 93.976 140.702 93.8083C140.634 93.6405 140.532 93.488 140.404 93.3595C140.277 93.231 140.125 93.1291 139.957 93.0595C139.79 92.9899 139.61 92.9541 139.429 92.9541L74.721 92.9564Z" fill="#E6E6E6"/>
<path d="M130.389 107.761H83.5801V111.891H130.389V107.761Z" fill="#939393"/>
<path d="M130.389 121.482H83.5801V125.612H130.389V121.482Z" fill="#939393"/>
<path d="M130.389 135.201H83.5801V139.331H130.389V135.201Z" fill="#939393"/>
<path d="M130.389 148.924H83.5801V153.054H130.389V148.924Z" fill="#939393"/>
<path d="M130.389 162.643H83.5801V166.773H130.389V162.643Z" fill="#939393"/>
<path d="M274 53H188C186.895 53 186 53.8954 186 55V121C186 122.105 186.895 123 188 123H274C275.105 123 276 122.105 276 121V55C276 53.8954 275.105 53 274 53Z" fill="#9CC8EC"/>
<path d="M274 49H188C186.895 49 186 49.8954 186 51V61H276V51C276 49.8954 275.105 49 274 49Z" fill="#459BDC"/>
<path d="M267.874 70H194V81H267.874V70Z" fill="white"/>
<path d="M268 88.9795H194.527V97.3197H268V88.9795Z" fill="#459BDC"/>
<path d="M267.998 104.66H194.525V113H267.998V104.66Z" fill="#459BDC"/>
</svg>
