<svg width="30" height="28" viewBox="0 0 30 28" fill="none" xmlns="http://www.w3.org/2000/svg">
<path d="M30 2V28H0V2H4V0H10C10.9167 0 11.7969 0.140625 12.6406 0.421875C13.4948 0.703125 14.2812 1.125 15 1.6875C15.7188 1.125 16.5 0.703125 17.3438 0.421875C18.1979 0.140625 19.0833 0 20 0H26V2H30ZM20 2C19.2708 2 18.5625 2.125 17.875 2.375C17.1875 2.61458 16.5625 2.96875 16 3.4375V23.0312C16.6146 22.6875 17.2604 22.4323 17.9375 22.2656C18.6146 22.0885 19.3021 22 20 22H24V2H20ZM6 22H10C10.6979 22 11.3854 22.0885 12.0625 22.2656C12.7396 22.4323 13.3854 22.6875 14 23.0312V3.4375C13.4375 2.96875 12.8125 2.61458 12.125 2.375C11.4375 2.125 10.7292 2 10 2H6V22ZM2 26H14.5938C14.2604 25.6771 13.9219 25.3958 13.5781 25.1562C13.2344 24.9062 12.875 24.6979 12.5 24.5312C12.1354 24.3542 11.7448 24.224 11.3281 24.1406C10.9219 24.0469 10.4792 24 10 24H4V4H2V26ZM28 4H26V24H20C19.5208 24 19.0729 24.0469 18.6562 24.1406C18.25 24.224 17.8594 24.3542 17.4844 24.5312C17.1198 24.6979 16.7656 24.9062 16.4219 25.1562C16.0781 25.3958 15.7396 25.6771 15.4062 26H28V4Z" fill="#333333"/>
</svg>
