<svg width="32" height="32" viewBox="0 0 32 32" fill="none" xmlns="http://www.w3.org/2000/svg">
<path d="M4 22V18H0V0H24V4H28V12H26V6H6V20H18V22H4ZM4 16V4H22V2H2V16H4ZM8 18V14H10V18H8ZM12 18V10H14V18H12ZM16 18V12H18V18H16ZM26 14C26.8229 14 27.599 14.1562 28.3281 14.4688C29.0573 14.7812 29.6927 15.2135 30.2344 15.7656C30.7865 16.3073 31.2188 16.9427 31.5312 17.6719C31.8438 18.401 32 19.1771 32 20C32 20.8333 31.8438 21.6146 31.5312 22.3438C31.2188 23.0625 30.7865 23.6979 30.2344 24.25C29.6927 24.7917 29.0573 25.2188 28.3281 25.5312C27.599 25.8438 26.8229 26 26 26C25.375 26 24.7656 25.9062 24.1719 25.7188C23.5781 25.5312 23.0312 25.2552 22.5312 24.8906L15.7031 31.7031C15.5052 31.901 15.2708 32 15 32C14.7292 32 14.4948 31.901 14.2969 31.7031C14.099 31.5052 14 31.2708 14 31C14 30.7292 14.099 30.4948 14.2969 30.2969L21.1094 23.4688C20.7448 22.9688 20.4688 22.4219 20.2812 21.8281C20.0938 21.2344 20 20.625 20 20C20 19.1771 20.1562 18.401 20.4688 17.6719C20.7812 16.9427 21.2083 16.3073 21.75 15.7656C22.3021 15.2135 22.9375 14.7812 23.6562 14.4688C24.3854 14.1562 25.1667 14 26 14ZM26 24C26.5521 24 27.0677 23.8958 27.5469 23.6875C28.0365 23.4792 28.4635 23.1927 28.8281 22.8281C29.1927 22.4635 29.4792 22.0417 29.6875 21.5625C29.8958 21.0729 30 20.5521 30 20C30 19.4479 29.8958 18.9323 29.6875 18.4531C29.4792 17.9635 29.1927 17.5365 28.8281 17.1719C28.4635 16.8073 28.0365 16.5208 27.5469 16.3125C27.0677 16.1042 26.5521 16 26 16C25.4479 16 24.9271 16.1042 24.4375 16.3125C23.9583 16.5208 23.5365 16.8073 23.1719 17.1719C22.8073 17.5365 22.5208 17.9635 22.3125 18.4531C22.1042 18.9323 22 19.4479 22 20C22 20.5521 22.1042 21.0729 22.3125 21.5625C22.5208 22.0417 22.8073 22.4635 23.1719 22.8281C23.5365 23.1927 23.9583 23.4792 24.4375 23.6875C24.9271 23.8958 25.4479 24 26 24Z" fill="#0078D4"/>
</svg>
